<?xml version="1.0" encoding="UTF-8"?>
<svg xmlns="http://www.w3.org/2000/svg" xmlns:xlink="http://www.w3.org/1999/xlink" version="1.1" id="Capa_1" x="0px" y="0px" viewBox="0 0 512 512" style="enable-background:new 0 0 512 512;" xml:space="preserve" width="512" height="512">
<g>
	<g>
		<g>
			<path style="fill:#FD8087;" d="M467.858,222.088H44.142c-20.237,0-36.642-16.405-36.642-36.642V71.534&#10;&#9;&#9;&#9;&#9;c0-20.237,16.405-36.642,36.642-36.642h423.715c20.237,0,36.642,16.405,36.642,36.642v113.912&#10;&#9;&#9;&#9;&#9;C504.5,205.683,488.095,222.088,467.858,222.088z"/>
			<path style="fill:#FE646F;" d="M467.858,34.891h-40c20.237,0,36.642,16.405,36.642,36.642v113.912&#10;&#9;&#9;&#9;&#9;c0,20.237-16.405,36.642-36.642,36.642h40c20.237,0,36.642-16.405,36.642-36.642V71.534&#10;&#9;&#9;&#9;&#9;C504.5,51.297,488.095,34.891,467.858,34.891z"/>
		</g>
		<g>
			<path style="fill:#FFDFCF;" d="M314.628,288.282c0.032-10.246,8.362-18.577,18.609-18.609h0&#10;&#9;&#9;&#9;&#9;c10.252-0.032,18.538,8.254,18.506,18.506l0,9.987c0.032-10.246,8.362-18.577,18.609-18.609h0&#10;&#9;&#9;&#9;&#9;c10.252-0.032,18.538,8.254,18.506,18.506l0,9.971c0.183-10.116,8.442-18.297,18.594-18.329h0&#10;&#9;&#9;&#9;&#9;c10.252-0.032,18.536,8.254,18.503,18.506v78.868c0,49.722-40.308,90.029-90.029,90.029h0c-35.083,0-67-20.296-81.878-52.069&#10;&#9;&#9;&#9;&#9;l-54.013-115.342c-5.033-10.641,0.77-23.245,12.126-26.34v0c8.868-2.417,18.189,1.89,22.097,10.209l23.325,49.656&#10;&#9;&#9;&#9;&#9;c1.747,3.718,5.531,6.047,9.638,5.93l0.24-0.007c5.59-0.159,10.039-4.737,10.04-10.329l0.013-150.418&#10;&#9;&#9;&#9;&#9;c0.032-10.246,8.362-18.577,18.609-18.609c10.252-0.032,18.538,8.254,18.506,18.506L314.628,288.282z"/>
			<g>
				<path style="fill:#FFCEBF;" d="M407.452,289.705L407.452,289.705c-9.667,0.03-17.601,7.454-18.497,16.897v80.478&#10;&#9;&#9;&#9;&#9;&#9;c0,43.368-30.666,79.571-71.496,88.116c6.002,1.252,12.181,1.914,18.466,1.914h0c49.722,0,90.029-40.308,90.029-90.029v-78.868&#10;&#9;&#9;&#9;&#9;&#9;C425.988,297.959,417.704,289.673,407.452,289.705z"/>
			</g>
		</g>
	</g>
	<g>
		<g>
			<path style="fill:none;stroke:#000000;stroke-width:15;stroke-linecap:round;stroke-linejoin:round;stroke-miterlimit:10;" d="&#10;&#9;&#9;&#9;&#9;M116.5,34.891h351.358c20.237,0,36.642,16.405,36.642,36.642v113.912c0,20.237-16.405,36.642-36.642,36.642H314.628"/>
			<path style="fill:none;stroke:#000000;stroke-width:15;stroke-linecap:round;stroke-linejoin:round;stroke-miterlimit:10;" d="&#10;&#9;&#9;&#9;&#9;M277.51,222.088H44.142c-20.237,0-36.642-16.405-36.642-36.642V71.534c0-20.237,16.405-36.642,36.642-36.642H84.5"/>
			<g>
				<g>
					<path style="fill:none;stroke:#000000;stroke-width:15;stroke-linecap:round;stroke-linejoin:round;stroke-miterlimit:10;" d="&#10;&#9;&#9;&#9;&#9;&#9;&#9;M67.445,172.051l32.595-85.895c0.666-1.634,2.971-1.637,3.641-0.004l32.298,85.899"/>
					
						<line style="fill:none;stroke:#000000;stroke-width:15;stroke-linecap:round;stroke-linejoin:round;stroke-miterlimit:10;" x1="77.611" y1="150.658" x2="125.978" y2="150.658"/>
				</g>
				<g>
					<path style="fill:none;stroke:#000000;stroke-width:15;stroke-linecap:round;stroke-linejoin:round;stroke-miterlimit:10;" d="&#10;&#9;&#9;&#9;&#9;&#9;&#9;M338.242,84.928v87.049c0.959,0.165,30.396,0,30.396,0"/>
				</g>
				<g>
					
						<polyline style="fill:none;stroke:#000000;stroke-width:15;stroke-linecap:round;stroke-linejoin:round;stroke-miterlimit:10;" points="&#10;&#9;&#9;&#9;&#9;&#9;&#9;389.328,84.928 417.055,127.548 444.555,85.149 &#9;&#9;&#9;&#9;&#9;"/>
					
						<line style="fill:none;stroke:#000000;stroke-width:15;stroke-linecap:round;stroke-linejoin:round;stroke-miterlimit:10;" x1="416.947" y1="172.051" x2="417.055" y2="127.548"/>
				</g>
				<g>
					
						<line style="fill:none;stroke:#000000;stroke-width:15;stroke-linecap:round;stroke-linejoin:round;stroke-miterlimit:10;" x1="170.636" y1="84.928" x2="170.636" y2="172.051"/>
					<path style="fill:none;stroke:#000000;stroke-width:15;stroke-linecap:round;stroke-linejoin:round;stroke-miterlimit:10;" d="&#10;&#9;&#9;&#9;&#9;&#9;&#9;M170.636,84.928h24.17c13.529,0,24.976,11.008,24.976,24.586c0,13.578-11.447,24.586-24.976,24.586l-24.002,0.109"/>
				</g>
				<g>
					
						<line style="fill:none;stroke:#000000;stroke-width:15;stroke-linecap:round;stroke-linejoin:round;stroke-miterlimit:10;" x1="254.439" y1="84.928" x2="254.439" y2="172.051"/>
					<path style="fill:none;stroke:#000000;stroke-width:15;stroke-linecap:round;stroke-linejoin:round;stroke-miterlimit:10;" d="&#10;&#9;&#9;&#9;&#9;&#9;&#9;M254.439,84.928h24.17c13.529,0,24.976,11.008,24.976,24.586c0,13.578-11.447,24.586-24.976,24.586l-24.002,0.109"/>
				</g>
			</g>
		</g>
		<g>
			<path style="fill:none;stroke:#000000;stroke-width:15;stroke-linecap:round;stroke-linejoin:round;stroke-miterlimit:10;" d="&#10;&#9;&#9;&#9;&#9;M413.572,432.664c7.867-13.371,12.384-28.949,12.384-45.585v-78.868c0.032-10.252-8.252-18.538-18.503-18.506h0&#10;&#9;&#9;&#9;&#9;c-10.152,0.032-18.411,8.213-18.594,18.329l0-9.971c0.032-10.252-8.254-18.538-18.506-18.506h0&#10;&#9;&#9;&#9;&#9;c-10.246,0.032-18.577,8.362-18.609,18.609l0-9.987c0.032-10.252-8.254-18.538-18.506-18.506h0&#10;&#9;&#9;&#9;&#9;c-10.246,0.032-18.577,8.362-18.609,18.609l0-99.987c0.032-10.252-8.254-18.538-18.506-18.506&#10;&#9;&#9;&#9;&#9;c-10.246,0.032-18.577,8.362-18.609,18.609L277.5,338.817c0,5.592-4.45,10.17-10.04,10.329l-0.24,0.007&#10;&#9;&#9;&#9;&#9;c-4.106,0.117-7.891-2.212-9.638-5.93l-23.325-49.656c-3.908-8.319-13.229-12.626-22.097-10.209v0&#10;&#9;&#9;&#9;&#9;c-11.356,3.095-17.159,15.699-12.126,26.34l54.013,115.342c14.879,31.772,46.795,52.069,81.878,52.069h0&#10;&#9;&#9;&#9;&#9;c22.345,0,42.786-8.144,58.525-21.622"/>
			<path style="fill:none;stroke:#000000;stroke-width:15;stroke-linecap:round;stroke-linejoin:round;stroke-miterlimit:10;" d="&#10;&#9;&#9;&#9;&#9;M388.858,308.034"/>
			
				<line style="fill:none;stroke:#000000;stroke-width:15;stroke-linecap:round;stroke-linejoin:round;stroke-miterlimit:10;" x1="351.744" y1="288.179" x2="351.743" y2="308.905"/>
			
				<line style="fill:none;stroke:#000000;stroke-width:15;stroke-linecap:round;stroke-linejoin:round;stroke-miterlimit:10;" x1="314.628" y1="308.034" x2="314.628" y2="288.282"/>
			
				<line style="fill:none;stroke:#000000;stroke-width:15;stroke-linecap:round;stroke-linejoin:round;stroke-miterlimit:10;" x1="388.858" y1="308.034" x2="388.858" y2="309.775"/>
		</g>
	</g>
</g>















</svg>
