<?xml version="1.0" encoding="UTF-8" standalone="no"?>
<!-- Created with Inkscape (http://www.inkscape.org/) -->

<svg
   version="1.1"
   id="svg3564"
   xml:space="preserve"
   width="682.66669"
   height="682.66669"
   viewBox="0 0 682.66669 682.66669"
   xmlns="http://www.w3.org/2000/svg"
   xmlns:svg="http://www.w3.org/2000/svg"><defs
     id="defs3568"><clipPath
       clipPathUnits="userSpaceOnUse"
       id="clipPath3578"><path
         d="M 0,512 H 512 V 0 H 0 Z"
         id="path3576" /></clipPath></defs><g
     id="g3570"
     transform="matrix(1.3333333,0,0,-1.3333333,0,682.66667)"><g
       id="g3572"><g
         id="g3574"
         clip-path="url(#clipPath3578)"><g
           id="g3580"
           transform="translate(321.0923,22.8047)"><path
             d="m 0,0 c -15.913,-9.71 -34.611,-15.305 -54.616,-15.305 h -21 c -20.066,0 -38.817,5.629 -54.76,15.393"
             style="fill:none;stroke:#000000;stroke-width:15;stroke-linecap:round;stroke-linejoin:round;stroke-miterlimit:10;stroke-dasharray:none;stroke-opacity:1"
             id="path3582" /></g><g
           id="g3584"
           transform="translate(362.0166,302.3164)"><path
             d="m 0,0 c 3.552,-10.113 5.483,-20.989 5.483,-32.316 0,-53.848 -43.652,-97.5 -97.5,-97.5 h -28 c -53.847,0 -97.5,43.652 -97.5,97.5 0,53.847 43.653,97.5 97.5,97.5 h 28 c 29.956,0 56.756,-13.509 74.641,-34.767"
             style="fill:none;stroke:#000000;stroke-width:15;stroke-linecap:round;stroke-linejoin:round;stroke-miterlimit:10;stroke-dasharray:none;stroke-opacity:1"
             id="path3586" /></g><g
           id="g3588"
           transform="translate(281.6621,367.8018)"><path
             d="m 0,0 26.508,107.566 c 5.989,24.301 33.413,36.41 55.509,24.51 20.262,-10.913 26.373,-37.027 13.043,-55.74 L 33.604,-9.938"
             style="fill:none;stroke:#000000;stroke-width:15;stroke-linecap:round;stroke-linejoin:round;stroke-miterlimit:10;stroke-dasharray:none;stroke-opacity:1"
             id="path3590" /></g><g
           id="g3592"
           transform="translate(230.4077,367.5)"><path
             d="m 0,0 -26.583,107.868 c -5.989,24.301 -33.413,36.409 -55.509,24.51 -20.262,-10.913 -26.373,-37.027 -13.043,-55.74 L -33.598,-9.75"
             style="fill:none;stroke:#000000;stroke-width:15;stroke-linecap:round;stroke-linejoin:round;stroke-miterlimit:10;stroke-dasharray:none;stroke-opacity:1"
             id="path3594" /></g><g
           id="g3596"
           transform="translate(322.4229,90.4707)"><path
             d="m 0,0 c -17.76,-25.164 -14.436,-58.534 7.425,-74.533 21.861,-16 53.98,-8.571 71.74,16.592 C 96.924,-32.777 93.6,0.593 71.739,16.592 49.878,32.592 17.76,25.163 0,0 Z"
             style="fill:none;stroke:#000000;stroke-width:15;stroke-linecap:round;stroke-linejoin:round;stroke-miterlimit:10;stroke-dasharray:none;stroke-opacity:1"
             id="path3598" /></g><g
           id="g3600"
           transform="translate(140.5464,116.3828)"><path
             d="M 0,0 C 1.13,31.084 15.772,58.722 38.228,77.213"
             style="fill:none;stroke:#000000;stroke-width:15;stroke-linecap:round;stroke-linejoin:round;stroke-miterlimit:10;stroke-dasharray:none;stroke-opacity:1"
             id="path3602" /></g><g
           id="g3604"
           transform="translate(332.4463,194.1924)"><path
             d="M 0,0 C 22.72,-18.37 37.622,-46.025 38.935,-77.196"
             style="fill:none;stroke:#000000;stroke-width:15;stroke-linecap:round;stroke-linejoin:round;stroke-miterlimit:10;stroke-dasharray:none;stroke-opacity:1"
             id="path3606" /></g><g
           id="g3608"
           transform="translate(101.1973,51.8418)"><path
             d="m 0,0 c -5.856,20.96 0.061,43.086 16.641,55.221 21.86,16 53.979,8.571 71.739,-16.592 17.76,-25.164 14.435,-58.534 -7.425,-74.533 -18.46,-13.511 -44.234,-10.317 -62.501,6.157"
             style="fill:none;stroke:#000000;stroke-width:15;stroke-linecap:round;stroke-linejoin:round;stroke-miterlimit:10;stroke-dasharray:none;stroke-opacity:1"
             id="path3610" /></g><g
           id="g3612"
           transform="translate(263.5,240.5)"><path
             d="m 0,0 h -15 c -8.284,0 -15,6.716 -15,15 0,8.284 6.716,15 15,15 H 0 C 8.284,30 15,23.284 15,15 15,6.716 8.284,0 0,0 Z"
             style="fill:none;stroke:#000000;stroke-width:15;stroke-linecap:round;stroke-linejoin:round;stroke-miterlimit:10;stroke-dasharray:none;stroke-opacity:1"
             id="path3614" /></g><g
           id="g3616"
           transform="translate(256,240)"><path
             d="m 0,0 v -13 c 0,-10.217 8.283,-18.5 18.5,-18.5 10.217,0 18.5,8.283 18.5,18.5"
             style="fill:none;stroke:#000000;stroke-width:15;stroke-linecap:round;stroke-linejoin:round;stroke-miterlimit:10;stroke-dasharray:none;stroke-opacity:1"
             id="path3618" /></g><g
           id="g3620"
           transform="translate(256,240)"><path
             d="m 0,0 v -13 c 0,-10.217 -8.283,-18.5 -18.5,-18.5 -10.217,0 -18.5,8.283 -18.5,18.5"
             style="fill:none;stroke:#000000;stroke-width:15;stroke-linecap:round;stroke-linejoin:round;stroke-miterlimit:10;stroke-dasharray:none;stroke-opacity:1"
             id="path3622" /></g><g
           id="g3624"
           transform="translate(308.5,283)"><path
             d="M 0,0 V -13"
             style="fill:none;stroke:#000000;stroke-width:15;stroke-linecap:round;stroke-linejoin:round;stroke-miterlimit:10;stroke-dasharray:none;stroke-opacity:1"
             id="path3626" /></g><g
           id="g3628"
           transform="translate(203.5,283)"><path
             d="M 0,0 V -13"
             style="fill:none;stroke:#000000;stroke-width:15;stroke-linecap:round;stroke-linejoin:round;stroke-miterlimit:10;stroke-dasharray:none;stroke-opacity:1"
             id="path3630" /></g><g
           id="g3632"
           transform="translate(413.8335,73.1943)"><path
             d="m 0,0 c 3.292,-0.103 6.638,0.404 9.872,1.573 13.35,4.824 20.55,19.26 16.415,32.838 -8.051,26.431 -30.42,68.716 -92.552,102.693"
             style="fill:none;stroke:#000000;stroke-width:15;stroke-linecap:round;stroke-linejoin:round;stroke-miterlimit:10;stroke-dasharray:none;stroke-opacity:1"
             id="path3634" /></g><g
           id="g3636"
           transform="translate(97.3755,73.1816)"><path
             d="m 0,0 c -3.035,-0.005 -6.105,0.511 -9.081,1.586 -13.35,4.824 -20.55,19.26 -16.415,32.838 8.051,26.43 30.42,68.716 92.552,102.692"
             style="fill:none;stroke:#000000;stroke-width:15;stroke-linecap:round;stroke-linejoin:round;stroke-miterlimit:10;stroke-dasharray:none;stroke-opacity:1"
             id="path3638" /></g></g></g></g></svg>
