<?xml version="1.0" encoding="UTF-8" standalone="no"?>
<!-- Created with Inkscape (http://www.inkscape.org/) -->

<svg
   version="1.1"
   id="svg2055"
   xml:space="preserve"
   width="682.66669"
   height="682.66669"
   viewBox="0 0 682.66669 682.66669"
   xmlns="http://www.w3.org/2000/svg"
   xmlns:svg="http://www.w3.org/2000/svg"><defs
     id="defs2059"><clipPath
       clipPathUnits="userSpaceOnUse"
       id="clipPath2069"><path
         d="M 0,512 H 512 V 0 H 0 Z"
         id="path2067" /></clipPath></defs><g
     id="g2061"
     transform="matrix(1.3333333,0,0,-1.3333333,0,682.66667)"><g
       id="g2063"><g
         id="g2065"
         clip-path="url(#clipPath2069)"><g
           id="g2071"
           transform="translate(90.2124,63.6729)"><path
             d="m 0,0 h 377.611 c 20.256,0 36.677,16.421 36.677,36.678 v 244.855 c 0,20.257 -16.421,36.678 -36.677,36.678 h -64.912 c -13.822,0 -26.47,7.771 -32.717,20.101 l -13.294,26.241 c -6.247,12.33 -18.895,20.101 -32.717,20.101 H 97.016 c -13.957,0 -26.704,-7.922 -32.885,-20.435 L 51.502,338.647 C 45.322,326.133 32.575,318.211 18.618,318.211 h -64.654 c -20.256,0 -36.676,-16.421 -36.676,-36.678 V 36.678 C -82.712,16.421 -66.292,0 -46.036,0 H -31.5"
             style="fill:none;stroke:#000000;stroke-width:15;stroke-linecap:round;stroke-linejoin:round;stroke-miterlimit:10;stroke-dasharray:none;stroke-opacity:1"
             id="path2073" /></g><g
           id="g2075"
           transform="translate(375.8545,228.1777)"><path
             d="m 0,0 c 0,-66.197 -53.661,-119.86 -119.854,-119.86 -66.194,0 -119.855,53.663 -119.855,119.86 0,66.196 53.661,119.859 119.855,119.859 C -53.661,119.859 0,66.196 0,0 Z"
             style="fill:none;stroke:#000000;stroke-width:15;stroke-linecap:round;stroke-linejoin:round;stroke-miterlimit:10;stroke-dasharray:none;stroke-opacity:1"
             id="path2077" /></g><g
           id="g2079"
           transform="translate(333.7173,262.0352)"><path
             d="m 0,0 c 4.523,-10.37 7.033,-21.821 7.033,-33.857 0,-46.809 -37.944,-84.755 -84.75,-84.755 -46.806,0 -84.75,37.946 -84.75,84.755 0,46.807 37.944,84.753 84.75,84.753 22.733,0 43.376,-8.952 58.596,-23.522"
             style="fill:none;stroke:#000000;stroke-width:15;stroke-linecap:round;stroke-linejoin:round;stroke-miterlimit:10;stroke-dasharray:none;stroke-opacity:1"
             id="path2081" /></g><g
           id="g2083"
           transform="translate(97.1401,410.2549)"><path
             d="m 0,0 h -41.166 c -3.715,0 -6.727,-3.013 -6.727,-6.728 V -28.371 H 6.728 V -6.728 C 6.728,-3.013 3.716,0 0,0 Z"
             style="fill:none;stroke:#000000;stroke-width:15;stroke-linecap:round;stroke-linejoin:round;stroke-miterlimit:10;stroke-dasharray:none;stroke-opacity:1"
             id="path2085" /></g><g
           id="g2087"
           transform="translate(76.5576,331.0635)"><path
             d="m 0,0 c 0,-9.375 -7.6,-16.975 -16.974,-16.975 -9.374,0 -16.973,7.6 -16.973,16.975 0,9.374 7.599,16.974 16.973,16.974 C -7.6,16.974 0,9.374 0,0 Z"
             style="fill:none;stroke:#000000;stroke-width:15;stroke-linecap:round;stroke-linejoin:round;stroke-miterlimit:10;stroke-dasharray:none;stroke-opacity:1"
             id="path2089" /></g><g
           id="g2091"
           transform="translate(218.8437,410.2549)"><path
             d="M 0,0 H 74.313"
             style="fill:none;stroke:#000000;stroke-width:15;stroke-linecap:round;stroke-linejoin:round;stroke-miterlimit:10;stroke-dasharray:none;stroke-opacity:1"
             id="path2093" /></g><g
           id="g2095"
           transform="translate(449.9814,340.5996)"><path
             d="M 0,0 H 11.8"
             style="fill:none;stroke:#000000;stroke-width:15;stroke-linecap:round;stroke-linejoin:round;stroke-miterlimit:10;stroke-dasharray:none;stroke-opacity:1"
             id="path2097" /></g></g></g></g></svg>
