<svg xmlns="http://www.w3.org/2000/svg" version="1.1" xmlns:xlink="http://www.w3.org/1999/xlink" xmlns:svgjs="http://svgjs.com/svgjs" width="512" height="512" x="0" y="0" viewBox="0 0 24 24" style="enable-background:new 0 0 512 512" xml:space="preserve" class=""><g><path d="M9.867 17.6a3 3 0 0 1 1.8-.6H19a1 1 0 0 0 1-1V8a1 1 0 0 0-1-1H5a1 1 0 0 0-1 1v8a1 1 0 0 0 1 1h2a1 1 0 0 1 1 1v1zM5 19a3 3 0 0 1-3-3V8a3 3 0 0 1 3-3h14a3 3 0 0 1 3 3v8a3 3 0 0 1-3 3h-7.333a1 1 0 0 0-.6.2L7.6 21.8A1 1 0 0 1 6 21v-2z" fill="#f19024" data-original="#000000" class=""></path><circle cx="8" cy="12" r="1" fill="#f19024" data-original="#000000" class=""></circle><circle cx="12" cy="12" r="1" fill="#f19024" data-original="#000000" class=""></circle><circle cx="16" cy="12" r="1" fill="#f19024" data-original="#000000" class=""></circle></g></svg>