<svg xmlns="http://www.w3.org/2000/svg" version="1.1" xmlns:xlink="http://www.w3.org/1999/xlink" xmlns:svgjs="http://svgjs.com/svgjs" width="512" height="512" x="0" y="0" viewBox="0 0 16.933 16.933" style="enable-background:new 0 0 512 512" xml:space="preserve" class=""><g><path d="M4.212.53A3.679 3.679 0 0 0 .537 4.211L.53 9.302a3.663 3.663 0 0 0 3.41 3.657v3.18a.265.265 0 0 0 .452.187l3.333-3.34h5.005a3.677 3.677 0 0 0 3.675-3.683v-5.09A3.67 3.67 0 0 0 12.738.528zm0 .528h8.526a3.13 3.13 0 0 1 3.137 3.154v5.09a3.137 3.137 0 0 1-3.146 3.155H7.614a.265.265 0 0 0-.187.078L4.468 15.5v-2.779a.265.265 0 0 0-.264-.264 3.135 3.135 0 0 1-3.146-3.154l.009-5.09a3.139 3.139 0 0 1 3.145-3.154zm1.609 4.906a.798.798 0 0 0-.794.794c0 .435.359.794.794.794a.798.798 0 0 0 .794-.794.798.798 0 0 0-.794-.794zm2.646 0a.798.798 0 0 0-.794.794c0 .435.358.794.794.794a.798.798 0 0 0 .793-.794.798.798 0 0 0-.793-.794zm2.646 0a.798.798 0 0 0-.794.794c0 .435.358.794.794.794a.798.798 0 0 0 .793-.794.798.798 0 0 0-.793-.794zm-5.292.53a.26.26 0 0 1 .265.264.26.26 0 0 1-.265.264.26.26 0 0 1-.265-.264.26.26 0 0 1 .265-.265zm2.646 0a.26.26 0 0 1 .264.264.26.26 0 0 1-.264.264.26.26 0 0 1-.265-.264.26.26 0 0 1 .265-.265zm2.646 0a.26.26 0 0 1 .264.264.26.26 0 0 1-.264.264.26.26 0 0 1-.265-.264.26.26 0 0 1 .265-.265z" paint-order="fill markers stroke" fill="#f19024" data-original="#000000" class=""></path></g></svg>