<svg id="Layer_1" enable-background="new 0 0 512 512" height="512" viewBox="0 0 512 512" width="512" xmlns="http://www.w3.org/2000/svg"><g clip-rule="evenodd" fill-rule="evenodd"><g><path d="m95.916 67.935h320.168v428.065h-320.168z" fill="#f2f2f2"/><path d="m183.036 48.011h30.425c5.312-18.486 22.345-32.011 42.539-32.011s37.227 13.526 42.539 32.012h30.425v49.237h-145.928z" fill="#e6e6e6"/><g fill="#ffd54f"><path d="m158.529 190.136h39.484v39.484h-39.484z"/><path d="m158.529 275.102h39.484v39.484h-39.484z"/><path d="m158.529 360.067h39.484v39.484h-39.484z"/></g></g><path d="m312.831 395.2c0 4.41-3.581 8-8.001 8h-74.579c-4.42 0-8.001-3.59-8.001-8 .001-4.42 3.58-8 8-8h74.58c4.422 0 8 3.58 8.001 8zm48.641-30.78c0 4.42-3.582 8-8.002 8h-123.219c-4.42 0-8.001-3.58-8.001-8 .001-4.42 3.58-8 8-8h123.221c4.419 0 7.999 3.58 8.001 8zm-139.221-54.19c0-4.42 3.579-8 7.999-8h74.58c4.422 0 8 3.58 8 8 .001 4.42-3.58 8-8 8h-74.579c-4.42 0-8.001-3.58-8-8zm139.221-30.77c0 4.42-3.582 8-8.002 8h-123.219c-4.42 0-8.001-3.58-8.001-8 .001-4.42 3.58-8 8-8h123.221c4.419 0 7.999 3.58 8.001 8zm-139.221-54.19c0-4.42 3.579-8 7.999-8h74.58c4.422 0 8 3.58 8 8 .001 4.41-3.58 8-8 8h-74.579c-4.42 0-8.001-3.59-8-8zm131.22-38.78c4.419 0 7.999 3.58 7.999 8 .002 4.42-3.58 8-8 8h-123.219c-4.42 0-8.001-3.58-8.001-8 .001-4.42 3.58-8 8-8zm-163.46 205.059h-23.48v-23.48h23.48zm7.999-39.479h-39.48c-4.42 0-8.001 3.58-8.001 8l.001 39.479c0 4.42 3.579 8.001 7.999 8.001l39.481-.001c4.42 0 7.999-3.579 7.999-7.999v-39.48c.001-4.421-3.579-8-7.999-8zm-7.999-45.481h-23.48v-23.49h23.48zm7.999-39.49h-39.48c-4.42 0-8.001 3.581-8.001 8.001l.001 39.489c0 4.41 3.579 8.001 7.999 8.001l39.481-.001c4.42 0 7.999-3.589 7.999-7.999v-39.491c.001-4.42-3.579-7.999-7.999-8zm-7.999-45.48h-23.48v-23.48h23.48zm7.999-39.48h-39.48c-4.42 0-8.001 3.58-8.001 8l.001 39.479c0 4.42 3.579 8.001 7.999 8.001h39.481c4.42 0 7.999-3.58 7.999-8v-39.481c.001-4.419-3.579-7.998-7.999-7.999zm210.071 305.861v-412.061h-71.12v21.311c0 4.42-3.579 7.999-7.998 7.999l-145.923.001c-4.42 0-8-3.581-8-8.001v-21.31h-71.12v412.061zm-217.041-431.991h22.42c3.571 0 6.71-2.359 7.69-5.789 4.441-15.441 18.77-26.22 34.85-26.22 16.082-.001 30.41 10.78 34.85 26.22.982 3.43 4.12 5.79 7.69 5.79l22.421-.001v33.24h-129.921zm225.042 3.931h-79.122v-11.931c0-4.42-3.581-7.999-8-7.999l-24.78-.001c-8.048-19.109-27.07-32.009-48.18-32.009-21.109-.001-40.13 12.9-48.18 32.01l-24.78-.001c-4.42 0-8 3.581-8 8.001v11.93h-79.12c-4.42 0-8 3.58-8 8v428.06c0 4.42 3.58 8 7.999 8h320.162c4.419 0 7.998-3.58 7.998-8v-428.06c.001-4.421-3.579-8-7.997-8z" fill="#242222"/></g></svg>