<svg height="512" viewBox="0 0 128 128" width="512" xmlns="http://www.w3.org/2000/svg"><path d="m17.2 60.077 15.6 6.745v48.936a6.758 6.758 0 0 0 6.75 6.75h48.904a6.758 6.758 0 0 0 6.75-6.75v-48.939l15.6-6.743a6.76 6.76 0 0 0 4-7.206l-3.504-23.27a16.254 16.254 0 0 0 -14.375-13.76l-12.243-1.3.192-.331a1.75 1.75 0 0 0 0-1.768l-3.593-6.087c-.021-.037-.051-.066-.075-.1a1.68 1.68 0 0 0 -.113-.15 1.765 1.765 0 0 0 -.252-.237c-.033-.025-.062-.055-.1-.078a1.735 1.735 0 0 0 -.387-.189c-.048-.017-.1-.028-.148-.041s-.107-.035-.163-.044a1.655 1.655 0 0 0 -.186-.009c-.028 0-.053-.013-.082-.013h-31.367c-.027 0-.052.011-.08.012a1.764 1.764 0 0 0 -.192.01 1.639 1.639 0 0 0 -.17.046c-.044.012-.088.021-.13.036a1.717 1.717 0 0 0 -.417.2c-.009.006-.016.014-.025.021a1.746 1.746 0 0 0 -.317.3c-.029.035-.055.072-.082.109s-.067.081-.095.127l-3.588 6.091a1.748 1.748 0 0 0 0 1.768l.18.312-12.415 1.315a16.279 16.279 0 0 0 -14.388 13.76l-3.489 23.277a6.754 6.754 0 0 0 4 7.2zm94.145-6.686a3.258 3.258 0 0 1 -1.924 3.473l-14.221 6.142v-6.082l15.721-6.288zm-30.011-40.052-1.034 1.787c-.009.015-.018.03-.026.045l-7.049 12.113-6.533-6.1 5.954-5.284 6.7-5.94zm-6.17-4.347-3.531 3.133-7.545 6.688-10.764-9.549-.306-.272zm-9.824 15.719v37.479h-2.5v-37.478l1.25-1.168zm-16.503-14.749 12.651 11.223-1.634 1.526-4.894 4.57-7.06-12.135-.018-.031-1.032-1.776zm-28.687 20.16a12.78 12.78 0 0 1 11.294-10.8l13.972-1.48 7.618 13.1a1.754 1.754 0 0 0 1.257.852 1.847 1.847 0 0 0 .256.018 1.747 1.747 0 0 0 1.194-.47l3.6-3.36v35.958a1.75 1.75 0 0 0 1.75 1.75h6a1.75 1.75 0 0 0 1.75-1.75v-35.961l3.6 3.361a1.749 1.749 0 0 0 1.2.47 1.847 1.847 0 0 0 .256-.018 1.747 1.747 0 0 0 1.256-.852l7.607-13.08 13.805 1.46a12.758 12.758 0 0 1 11.282 10.8l2.551 16.96-15.198 6.074v-11.487a1.75 1.75 0 1 0 -3.5 0v23.968.091 50.032a3.254 3.254 0 0 1 -3.25 3.25h-48.905a3.254 3.254 0 0 1 -3.25-3.25v-74.091a1.75 1.75 0 0 0 -3.5 0v11.487l-15.187-6.075zm-3.49 23.278.414-2.763 15.726 6.287v6.085l-14.21-6.145a3.248 3.248 0 0 1 -1.93-3.464z"/></svg>