<svg id="Capa_1" enable-background="new 0 0 497 497" height="512" viewBox="0 0 497 497" width="512" xmlns="http://www.w3.org/2000/svg"><g><path d="m233.101 451.266-74.109 7.567-74.108-7.567v-50.393h148.217z" fill="#7a6d79"/><path d="m233.099 400.87v50.4l-28.27 4.593-16.66-4.593v-50.4z" fill="#685e68"/><path d="m230.594 497h-177.709c-25.258 0-45.734-20.476-45.734-45.734h303.682z" fill="#f47c7c"/><path d="m310.829 451.27-80.235 45.73h-42.425v-45.73z" fill="#ee6161"/><circle cx="158.992" cy="271.319" fill="#f47c7c" r="151.841"/><path d="m310.829 271.32c0 83.86-67.98 151.84-151.84 151.84-7.21 0-14.3-.5-21.24-1.47 73.79-10.34 130.58-73.72 130.58-150.37s-56.79-140.03-130.58-150.37c6.94-.97 14.03-1.47 21.24-1.47 83.86 0 151.84 67.98 151.84 151.84z" fill="#ee6161"/><circle cx="158.992" cy="271.319" fill="#eaf6ff" r="114.636"/><path d="m273.629 271.32c0 63.31-51.32 114.63-114.64 114.63-5.84 0-11.59-.44-17.2-1.28 55.16-8.3 97.44-55.89 97.44-113.35s-42.28-105.06-97.44-113.36c5.61-.84 11.36-1.28 17.2-1.28 63.32 0 114.64 51.33 114.64 114.64z" fill="#c8effe"/><path d="m347.531 497h-15.952l-42.516-6.778-42.517 6.778h-15.953c-13.08 0-23.683-10.603-23.683-23.683v-69.101l82.152-8.716 82.152 8.716v69.101c0 13.08-10.603 23.683-23.683 23.683z" fill="#eaf6ff"/><path d="m371.219 404.22v69.1c0 13.08-10.61 23.68-23.69 23.68h-15.95c13.08 0 23.68-10.6 23.68-23.68v-69.1l7.24-3.35z" fill="#c8effe"/><path d="m331.579 497h-85.033v-34.028c0-3.926 3.183-7.108 7.108-7.108h70.816c3.926 0 7.108 3.183 7.108 7.108v34.028z" fill="#c8effe"/><path d="m331.579 462.968v34.032h-15.43v-31.872c0-3.876-2.132-7.437-5.548-9.268h13.87c3.925 0 7.108 3.183 7.108 7.108z" fill="#99e6fc"/><path d="m363.46 0h-148.796c-19.54 0-35.38 15.84-35.38 35.38l109.778 7.453 109.778-7.453c0-19.54-15.84-35.38-35.38-35.38z" fill="#eaf6ff"/><path d="m398.839 35.38-9.34 4.787-6.09-4.787c0-9.77-3.96-18.62-10.36-25.02-6.41-6.4-15.25-10.36-25.02-10.36h15.43c9.77 0 18.62 3.96 25.02 10.36s10.36 15.25 10.36 25.02z" fill="#c8effe"/><path d="m371.214 404.216h-164.303l-27.627-368.836h219.556z" fill="#c1e9af"/><path d="m398.839 35.38-27.62 368.84h-15.44l27.63-368.84z" fill="#97da7b"/><path d="m289.062 204.553h-18.632c-20.249 0-36.664-16.415-36.664-36.664v-10.583c0-3.343 2.71-6.052 6.052-6.052h12.579c20.249 0 36.664 16.415 36.664 36.664v16.635z" fill="#97da7b"/><path d="m289.062 204.553h18.632c20.249 0 36.664-16.415 36.664-36.664v-10.583c0-3.343-2.71-6.052-6.052-6.052h-12.579c-20.249 0-36.664 16.415-36.664 36.664v16.635z" fill="#80d261"/><path d="m472.972 271.911-25.282 6.089-25.283-6.089v-43.488c0-10.155 4.61-19.761 12.533-26.114l20.646-16.556c7.001-5.614 17.387-.63 17.387 8.344v77.814z" fill="#ee6161"/><path d="m472.969 194.1v77.81l-8.97 6.09-12.12-6.09v-77.81c0-1.68-.36-3.21-1-4.57l4.71-3.78c7-5.61 17.38-.63 17.38 8.35z" fill="#e94444"/><path d="m480.979 368.872-33.289 4.128-33.289-4.128v-92.973c0-2.202 1.785-3.988 3.988-3.988h58.602c2.202 0 3.988 1.785 3.988 3.988z" fill="#a79ba7"/><path d="m480.979 275.898v92.972l-11 4.13-11-4.13v-91.993c0-2.079-1.146-3.989-2.98-4.967h20.992c2.202 0 3.988 1.785 3.988 3.988z" fill="#918291"/><path d="m489.849 372.86v27.64l-1.475 7.5 1.475 7.5v68.81c0 7.01-5.68 12.69-12.69 12.69h-58.94c-7.01 0-12.69-5.68-12.69-12.69v-111.45c0-2.2 1.79-3.99 3.99-3.99h76.34c2.2 0 3.99 1.79 3.99 3.99z" fill="#7a6d79"/><path d="m489.849 372.858v27.642l-1.475 7.5 1.475 7.5v68.81c0 7.008-5.682 12.69-12.69 12.69h-25.28c7.01 0 12.69-5.68 12.69-12.69v-110.334c0-2.139-1.181-4.103-3.07-5.106h24.362c2.202 0 3.988 1.785 3.988 3.988z" fill="#685e68"/><g><g><path d="m320.335 248.333h-62.545c-4.142 0-7.5-3.358-7.5-7.5s3.358-7.5 7.5-7.5h62.544c4.142 0 7.5 3.358 7.5 7.5s-3.357 7.5-7.499 7.5z" fill="#80d261"/></g></g><g><g><g><path d="m464.569 400.5h25.28v15h-25.28z" fill="#918291"/></g><g><path d="m464.569 400.5v15h-12.69c-4.14 0-7.5-3.36-7.5-7.5s3.36-7.5 7.5-7.5z" fill="#a79ba7"/></g></g></g></g></svg>