<?xml version="1.0" encoding="UTF-8"?>
<svg xmlns="http://www.w3.org/2000/svg" xmlns:xlink="http://www.w3.org/1999/xlink" version="1.1" id="Capa_1" x="0px" y="0px" viewBox="0 0 511.996 511.996" style="enable-background:new 0 0 511.996 511.996;" xml:space="preserve" width="512" height="512">
<g>
	<path style="fill:none;stroke:#000000;stroke-width:15;stroke-linecap:round;stroke-linejoin:round;stroke-miterlimit:10;" d="&#10;&#9;&#9;M137.943,26.501L137.943,26.501c-0.001-0.001-28.073,25.563-37.919,81.009c-9.43,53.102-13.155,156.585-35.303,230.334&#10;&#9;&#9;c-1.588,5.289,1.49,10.841,6.811,12.315l23.885,6.619c5.188,1.438,10.572-1.547,12.09-6.712&#10;&#9;&#9;c6.162-20.962,20.604-73.958,24.645-122.856c3.472-42.017,18.579-90.082,28.169-117.222&#10;&#9;&#9;C144.981,61.519,137.946,26.52,137.943,26.501z"/>
	<path style="fill:none;stroke:#000000;stroke-width:15;stroke-linecap:round;stroke-linejoin:round;stroke-miterlimit:10;" d="&#10;&#9;&#9;M374.053,26.501L374.053,26.501c0-0.001,28.073,25.563,37.919,81.009c9.43,53.102,13.155,156.585,35.303,230.334&#10;&#9;&#9;c1.588,5.289-1.49,10.841-6.811,12.315l-23.885,6.619c-5.188,1.438-10.572-1.547-12.09-6.712&#10;&#9;&#9;c-6.162-20.962-20.604-73.958-24.645-122.856c-3.472-42.017-18.579-90.082-28.169-117.222&#10;&#9;&#9;C367.015,61.519,374.049,26.52,374.053,26.501z"/>
	<path style="fill:none;stroke:#000000;stroke-width:15;stroke-linecap:round;stroke-linejoin:round;stroke-miterlimit:10;" d="&#10;&#9;&#9;M238.498,7.5h-42.091c0,0,2.646,19.987,27.416,37.603c19.223,13.67,45.127,13.67,64.35,0C312.944,27.487,315.589,7.5,315.589,7.5&#10;&#9;&#9;h-42.091"/>
	<path style="fill:none;stroke:#000000;stroke-width:15;stroke-linecap:round;stroke-linejoin:round;stroke-miterlimit:10;" d="&#10;&#9;&#9;M370.185,396.606c-1.904-37.146-9.056-81.297-27.852-124.229c-19.788-45.198-16.521-87.75-1.353-130.494&#10;&#9;&#9;C363.78,77.628,374.053,26.5,374.053,26.5s-26.077-19-58.464-19c0,0-2.646,19.987-27.416,37.603&#10;&#9;&#9;c-19.223,13.67-45.127,13.67-64.35,0C199.052,27.487,196.407,7.5,196.407,7.5c-32.386,0-58.464,19-58.464,19&#10;&#9;&#9;s10.273,51.128,33.073,115.382c15.167,42.744,18.435,85.296-1.353,130.494c-38.136,87.109-28.354,179.259-24.01,207.669&#10;&#9;&#9;c0.812,5.312,4.771,9.595,10.008,10.802l19.15,4.414c53.425,12.312,108.949,12.312,162.374,0l19.15-4.414&#10;&#9;&#9;c5.237-1.207,9.196-5.49,10.008-10.802c1.478-9.668,3.584-26.721,4.22-48.44"/>
</g>















</svg>
