<svg id="Layer_3" height="512" viewBox="0 0 64 64" width="512" xmlns="http://www.w3.org/2000/svg" data-name="Layer 3"><path d="m52 56v-49a5 5 0 0 0 -5-5h-40a5 5 0 0 1 5 5v48.748a6.166 6.166 0 0 0 5.815 6.252 6 6 0 0 0 6.185-6z" fill="#e2e7f6"/><path d="m57 28-18 18-5-5 18-18z" fill="#559b2d"/><path d="m39 46-5-5-4 9z" fill="#fadfb2"/><path d="m35.538 47.538-3.076-3.076-2.462 5.538z" fill="#474747"/><path d="m53.879 20.464h4.243v7.071h-4.243z" fill="#f0ae42" transform="matrix(.707 -.707 .707 .707 -.569 46.627)"/><path d="m55 20 5 5 .965-.966a3.532 3.532 0 0 0 1.035-2.499 3.535 3.535 0 0 0 -3.535-3.535 3.534 3.534 0 0 0 -2.5 1.035z" fill="#ccc"/><g fill="#c8cded"><path d="m12 19h-8a2 2 0 0 1 -2-2v-10a5 5 0 0 1 5-5 5 5 0 0 1 5 5z"/><path d="m17.815 62a6 6 0 0 0 6.185-6h32a6 6 0 0 1 -6 6z"/><path d="m16 18h10v10h-10z"/></g><path d="m22 26a1 1 0 0 1 -.708-.292l-3-3 1.415-1.415 2.293 2.291 8.292-8.293 1.415 1.415-9 9a1 1 0 0 1 -.707.294z" fill="#6bc13b"/><path d="m16 34h10v10h-10z" fill="#c8cded"/><path d="m22 42a1 1 0 0 1 -.708-.292l-3-3 1.415-1.415 2.293 2.291 8.292-8.293 1.415 1.415-9 9a1 1 0 0 1 -.707.294z" fill="#6bc13b"/><rect fill="#78a0d4" height="6" rx="3" width="28" x="18" y="6"/><path d="m47 28h-17v-4h21" fill="#78a0d4"/><path d="m40.999 50.999h7.999v1.999h-7.999z" fill="#78a0d4"/><path d="m21 6a3 3 0 0 0 0 6h17.228a18.459 18.459 0 0 0 4.349-6z" fill="#99bbe0"/></svg>