<?xml version="1.0" encoding="UTF-8" standalone="no"?>
<!-- Created with Inkscape (http://www.inkscape.org/) -->

<svg
   version="1.1"
   id="svg7926"
   xml:space="preserve"
   width="682.66534"
   height="682.66669"
   viewBox="0 0 682.66534 682.66669"
   xmlns="http://www.w3.org/2000/svg"
   xmlns:svg="http://www.w3.org/2000/svg"><defs
     id="defs7930"><clipPath
       clipPathUnits="userSpaceOnUse"
       id="clipPath7940"><path
         d="M 0,512 H 511.999 V 0 H 0 Z"
         id="path7938" /></clipPath></defs><g
     id="g7932"
     transform="matrix(1.3333333,0,0,-1.3333333,0,682.66667)"><g
       id="g7934"><g
         id="g7936"
         clip-path="url(#clipPath7940)"><g
           id="g7942"
           transform="translate(460.7988,227.0088)"><path
             d="m 0,0 c -3.553,1.832 -6.703,3.92 -9.032,6.644 -4.479,5.235 -6.881,13.977 -7.1,20.973 h -117.854 c -0.219,-6.996 -2.621,-15.738 -7.1,-20.973 -2.329,-2.724 -5.478,-4.812 -9.032,-6.644 -11.153,-5.751 -14.219,-37.989 8.71,-46.853 L -9.707,-46.69 C 12.921,-37.611 11.086,-5.717 0,0"
             style="fill:#695d67;fill-opacity:1;fill-rule:nonzero;stroke:none"
             id="path7944" /></g><g
           id="g7946"
           transform="translate(335.6357,227.0088)"><path
             d="m 0,0 c 3.553,1.832 6.703,3.92 9.032,6.644 4.479,5.235 6.881,13.977 7.099,20.973 H -8.823 C -9.042,20.621 -11.444,11.879 -15.923,6.644 -18.252,3.92 -21.401,1.832 -24.955,0 c -11.153,-5.751 -14.219,-37.989 8.71,-46.853 l 24.884,0.031 C -14.21,-37.919 -11.142,-5.745 0,0"
             style="fill:#544e55;fill-opacity:1;fill-rule:nonzero;stroke:none"
             id="path7948" /></g><g
           id="g7950"
           transform="translate(386.4209,158.7802)"><path
             d="m 0,0 c 20.767,-0.07 39.36,12.148 51.421,27.441 -8.503,3.293 -15.625,6.052 -17.958,6.955 l -6.186,2.396 c -1.754,0.678 -2.92,2.366 -2.924,4.257 L 24.316,58.504 C 8.112,47.629 -12.345,49.38 -26.292,58.787 V 41.076 c 0,-3.503 -3.124,-4.347 -4.456,-4.862 l -4.144,-1.607 c -2.15,-0.834 -9.504,-3.684 -18.321,-7.102 C -41.501,12.515 -22.973,0.077 0,0"
             style="fill:#fed2a4;fill-opacity:1;fill-rule:nonzero;stroke:none"
             id="path7952" /></g><g
           id="g7954"
           transform="translate(347.8945,171.9189)"><path
             d="m 0,0 c 8.678,3.364 15.366,5.958 17.745,6.88 l 6.116,2.371 c 1.966,0.762 6.578,2.008 6.578,7.178 l -0.001,22.077 c -6.616,1.085 -12.884,3.555 -18.204,7.142 V 27.937 c 0,-3.501 -3.124,-4.346 -4.456,-4.862 L 3.635,21.469 C 1.484,20.635 -5.87,17.784 -14.687,14.366 -10.592,9.125 -5.66,4.198 0,0"
             style="fill:#ffbd86;fill-opacity:1;fill-rule:nonzero;stroke:none"
             id="path7956" /></g><g
           id="g7958"
           transform="translate(385.2763,365.3154)"><path
             d="m 0,0 c -34.22,-0.25 -61.594,-28.613 -61.594,-62.834 v -24.818 c 4.174,3.395 10.068,6.602 17.025,5.631 h 0.024 11.768 c 1.535,0 10.168,0.704 9.533,0.655 10.603,0.812 19.819,7.987 22.721,18.218 0.089,0.318 0.173,0.637 0.252,0.96 0.084,0.342 0.383,0.586 0.736,0.586 0.352,0 0.653,-0.244 0.736,-0.586 0.077,-0.319 0.16,-0.635 0.249,-0.949 2.872,-10.146 11.967,-17.294 22.474,-18.184 7.817,-0.663 7.924,-0.7 9.334,-0.7 h 12.215 0.023 c 7.089,1.011 13.133,-2.091 17.027,-5.631 v 25.595 C 62.523,-27.628 34.489,0.252 0,0"
             style="fill:#695d67;fill-opacity:1;fill-rule:nonzero;stroke:none"
             id="path7960" /></g><g
           id="g7962"
           transform="translate(348.1865,302.4814)"><path
             d="M 0,0 C 0,30.207 21.335,55.837 49.875,61.608 45.746,62.439 41.471,62.866 37.09,62.834 2.87,62.584 -24.504,34.221 -24.504,0 v -24.818 c 4.174,3.395 10.067,6.602 17.025,5.631 H -7.455 0 Z"
             style="fill:#544e55;fill-opacity:1;fill-rule:nonzero;stroke:none"
             id="path7964" /></g><g
           id="g7966"
           transform="translate(343.0468,251.8672)"><path
             d="M 0,0 -2.315,32.972 H -2.34 c -6.952,0.969 -12.842,-2.232 -17.014,-5.625 -2.812,-3.037 -4.522,-7 -4.522,-11.341 0,-10.555 10.103,-18.88 21.586,-17.075 C -2.298,-0.713 0,-0.357 0,0"
             style="fill:#fed2a4;fill-opacity:1;fill-rule:nonzero;stroke:none"
             id="path7968" /></g><g
           id="g7970"
           transform="translate(447.7763,279.2265)"><path
             d="m 0,0 c -3.896,3.532 -9.929,6.621 -17.004,5.612 h -0.023 -10e-4 l -3.087,-32.535 c 0,-0.504 3.065,-1.003 3.049,-1.504 11.489,-1.812 21.598,6.515 21.598,17.073 C 4.532,-7.007 2.817,-3.039 0,0"
             style="fill:#fed2a4;fill-opacity:1;fill-rule:nonzero;stroke:none"
             id="path7972" /></g><g
           id="g7974"
           transform="translate(340.7568,264.6904)"><path
             d="m 0,0 c -8.787,-1.381 -16.76,3.173 -20.022,10.114 -0.995,-2.124 -1.564,-4.463 -1.564,-6.931 0,-10.555 10.103,-18.88 21.586,-17.076 -0.008,0.357 2.29,0.712 2.29,1.07 L 1.348,0.599 C 0.714,0.398 -0.004,0.199 0,0"
             style="fill:#ffbd86;fill-opacity:1;fill-rule:nonzero;stroke:none"
             id="path7976" /></g><g
           id="g7978"
           transform="translate(430.7099,264.6924)"><path
             d="m 0,0 c 0.01,0.28 -0.948,0.561 -1.793,0.841 l -1.256,-13.23 c 0,-0.504 3.066,-1.003 3.049,-1.504 11.489,-1.812 21.599,6.515 21.599,17.074 0,2.468 -0.57,4.807 -1.564,6.931 C 16.771,3.167 8.792,-1.388 0,0"
             style="fill:#ffbd86;fill-opacity:1;fill-rule:nonzero;stroke:none"
             id="path7980" /></g><g
           id="g7982"
           transform="translate(477.6543,170.8037)"><path
             d="m 0,0 c -2.6,1.006 -13.169,5.1 -24.629,9.538 -0.035,-0.066 -0.056,-0.105 0,0 -5.093,1.973 -10.359,4.012 -15.183,5.88 -12.061,-15.293 -30.655,-25.196 -51.421,-25.126 -22.973,0.077 -41.501,10.199 -53.213,25.189 -4.814,-1.866 -10.063,-3.901 -15.139,-5.87 L -184.379,0 c -11.275,-4.64 -24.754,-18.712 -24.754,-38.395 v -10e-4 -73.977 c 0,-4.558 3.695,-8.248 8.249,-8.248 H 16.505 c 4.553,0 8.248,3.689 8.248,8.248 v 73.977 10e-4 C 24.753,-20.897 13.555,-5.579 0,0"
             style="fill:#ff656f;fill-opacity:1;fill-rule:nonzero;stroke:none"
             id="path7984" /></g><g
           id="g7986"
           transform="translate(418.5341,284.8388)"><path
             d="m 0,0 c -1.41,0 -1.517,0.036 -9.334,0.699 -10.507,0.891 -19.602,8.038 -22.474,18.185 -0.088,0.313 -0.171,0.63 -0.249,0.948 -0.083,0.343 -0.383,0.587 -0.736,0.587 -0.353,0 -0.652,-0.244 -0.736,-0.587 -0.078,-0.322 -0.162,-0.643 -0.252,-0.96 C -36.683,8.641 -45.898,1.466 -56.502,0.654 -55.867,0.703 -64.5,0 -66.035,0 h -11.768 v -32.972 c 0,-23.13 18.081,-44.274 45.47,-44.366 24.501,-0.083 44.547,20.303 44.547,44.803 l 0,32.535 z"
             style="fill:#fed2a4;fill-opacity:1;fill-rule:nonzero;stroke:none"
             id="path7988" /></g><g
           id="g7990"
           transform="translate(360.541,251.8672)"><path
             d="M 0,0 V 33.506 C -2.417,33.315 -6.968,32.972 -8.042,32.972 H -19.81 V 0 c 0,-23.13 18.081,-44.274 45.47,-44.366 3.315,-0.012 6.543,0.364 9.655,1.061 C 13.702,-38.755 0,-20.133 0,0"
             style="fill:#ffbd86;fill-opacity:1;fill-rule:nonzero;stroke:none"
             id="path7992" /></g><g
           id="g7994"
           transform="translate(160.0351,193.665)"><path
             d="m 0,0 -5.128,1.986 c -0.758,0.292 -1.455,0.809 -1.983,1.505 h -0.001 c -0.59,0.776 -0.94,1.732 -0.943,2.754 L -8.069,22.84 C -24.168,12.307 -44.538,13.732 -58.727,22.909 V 6.272 c 0,-1.213 -0.378,-2.102 -0.924,-2.775 -1.031,-1.269 -2.662,-1.752 -3.534,-2.09 -0.732,-0.283 -1.955,-0.758 -3.559,-1.379 9.276,-6.442 20.876,-12.648 34.187,-12.648 C -20.451,-12.62 -9.22,-6.488 0,0"
             style="fill:#fed2a4;fill-opacity:1;fill-rule:nonzero;stroke:none"
             id="path7996" /></g><g
           id="g7998"
           transform="translate(116.7924,184.9453)"><path
             d="M 0,0 V -0.001 C 0.872,0.47 2.503,1.14 3.534,2.905 4.08,3.841 4.458,5.077 4.458,6.766 v 17.767 c -7.208,0.857 -14.1,3.318 -19.942,7.096 V 14.992 c 0,-1.214 -0.379,-2.102 -0.925,-2.775 -1.03,-1.27 -2.661,-1.752 -3.533,-2.09 C -20.674,9.844 -21.897,9.369 -23.501,8.748 -17.609,4.655 -10.776,0.665 -3.165,-1.706 -1.756,-0.946 -0.67,-0.361 0,0"
             style="fill:#ffbd86;fill-opacity:1;fill-rule:nonzero;stroke:none"
             id="path8000" /></g><g
           id="g8002"
           transform="translate(180.7514,287.4521)"><path
             d="m 0,0 c -1.39,-0.957 -3.069,-1.521 -4.875,-1.521 -1.166,0 -3.076,0.125 -4.175,0.358 v -33.519 c 0,-0.395 -0.019,-0.786 -0.03,-1.179 11.6,-1.36 22.025,7.109 22.025,17.47 C 12.945,-10.429 7.663,-2.188 0,0"
             style="fill:#fed2a4;fill-opacity:1;fill-rule:nonzero;stroke:none"
             id="path8004" /></g><g
           id="g8006"
           transform="translate(81.6142,252.7705)"><path
             d="m 0,0 v 33.16 h -6.416 c -1.432,0 -2.81,0.23 -4.105,0.645 -6.464,-2.744 -11.474,-10.181 -11.474,-17.514 0,-10.349 10.406,-18.832 22.024,-17.47 C 0.019,-0.786 0,-0.395 0,0"
             style="fill:#fed2a4;fill-opacity:1;fill-rule:nonzero;stroke:none"
             id="path8008" /></g><g
           id="g8010"
           transform="translate(171.7016,267.2968)"><path
             d="m 0,0 v -14.526 c 0,-0.396 -0.02,-0.787 -0.03,-1.18 11.6,-1.359 22.025,7.109 22.025,17.471 0,2.826 -0.676,5.681 -1.878,8.295 C 16.611,3.445 8.635,-1 0,0"
             style="fill:#ffbd86;fill-opacity:1;fill-rule:nonzero;stroke:none"
             id="path8012" /></g><g
           id="g8014"
           transform="translate(81.6142,267.2978)"><path
             d="m 0,0 c -8.572,-0.993 -16.475,3.374 -20.023,9.89 -1.248,-2.549 -1.972,-5.345 -1.972,-8.126 0,-10.349 10.406,-18.832 22.024,-17.47 C 0.019,-15.313 0,-14.922 0,-14.527 Z"
             style="fill:#ffbd86;fill-opacity:1;fill-rule:nonzero;stroke:none"
             id="path8016" /></g><g
           id="g8018"
           transform="translate(159.4067,303.1728)"><path
             d="M 0,0 C 0,0.883 -1.182,1.187 -1.598,0.408 -6.967,-9.635 -17.549,-16.47 -29.734,-16.47 h -48.83 v -33.932 c 0,-23.605 18.494,-45.162 46.469,-45.162 24.903,0 45.162,20.259 45.162,45.162 v 34.29 C 5.627,-14.533 0,-7.893 0,0"
             style="fill:#fed2a4;fill-opacity:1;fill-rule:nonzero;stroke:none"
             id="path8020" /></g><g
           id="g8022"
           transform="translate(102.0649,252.7705)"><path
             d="M 0,0 V 33.933 H -21.223 V 0 c 0,-23.604 18.494,-45.162 46.47,-45.162 3.524,0 6.951,0.419 10.246,1.186 C 13.763,-39.179 0,-20.356 0,0"
             style="fill:#ffbd86;fill-opacity:1;fill-rule:nonzero;stroke:none"
             id="path8024" /></g><g
           id="g8026"
           transform="translate(218.8979,170.8691)"><path
             d="m 0,0 -41.22,15.963 c -10e-4,-10e-4 -10e-4,-10e-4 0,0 l -16.583,6.423 -1.06,0.41 c -9.22,-6.488 -20.45,-10.304 -32.556,-10.304 -13.312,0 -24.912,3.89 -34.188,10.332 -4.031,-1.563 -10.484,-4.064 -17.686,-6.857 L -184.479,0 c -10.589,-4.357 -24.767,-18.069 -24.767,-38.416 v -73.562 c 0,-4.81 3.899,-8.709 8.709,-8.709 H 16.058 c 4.809,0 8.708,3.899 8.708,8.709 v 73.562 C 24.766,-20.894 13.548,-5.576 0,0"
             style="fill:#60b8fe;fill-opacity:1;fill-rule:nonzero;stroke:none"
             id="path8028" /></g><g
           id="g8030"
           transform="translate(34.4189,170.8691)"><path
             d="m 0,0 c -10.589,-4.357 -24.767,-18.069 -24.767,-38.416 v -73.562 c 0,-4.81 3.899,-8.709 8.709,-8.709 h 14.853 v 93.796 c 0,14.377 7.08,25.435 14.97,32.227 z"
             style="fill:#23a8fe;fill-opacity:1;fill-rule:nonzero;stroke:none"
             id="path8032" /></g><g
           id="g8034"
           transform="translate(169.54,344.6074)"><path
             d="m 0,0 c -4.315,-0.332 -8.274,2.382 -9.105,6.629 -1.399,7.153 -4.94,14.252 -18.774,14.252 h -47.997 c -17.616,0 -31.895,-14.28 -31.895,-31.896 V -46.02 c 0,-7.417 6.012,-13.429 13.429,-13.429 h 54.475 c 12.184,0 22.766,6.836 28.136,16.879 0.416,0.778 1.598,0.474 1.598,-0.409 0,-9.058 7.411,-16.47 16.47,-16.47 4.748,0 8.633,3.885 8.633,8.634 v 36.528 C 14.97,-5.682 7.462,0.574 0,0"
             style="fill:#695d67;fill-opacity:1;fill-rule:nonzero;stroke:none"
             id="path8036" /></g><g
           id="g8038"
           transform="translate(87.6997,298.5879)"><path
             d="M 0,0 V 35.005 C 0,52.62 14.28,66.9 31.896,66.9 H 5.964 c -17.615,0 -31.895,-14.28 -31.895,-31.895 V 0 c 0,-7.417 6.013,-13.43 13.43,-13.43 H 13.43 C 6.013,-13.43 0,-7.417 0,0"
             style="fill:#544e55;fill-opacity:1;fill-rule:nonzero;stroke:none"
             id="path8040" /></g><g
           id="g8042"
           transform="translate(255.8398,100.2802)"><path
             d="m 0,0 c -9.185,0 -17.255,2.521 -23.857,6.739 v -18.218 c 0,-2.459 -1.511,-4.667 -3.804,-5.555 l -8.76,-3.396 6.303,-8.697 c 16.233,-17.247 42.795,-17.247 59.026,10e-4 l 6.574,8.985 -8.213,3.182 c -2.18,0.844 -3.616,2.939 -3.616,5.276 V 7.368 C 16.924,2.727 8.776,0 0,0"
             style="fill:#fed2a4;fill-opacity:1;fill-rule:nonzero;stroke:none"
             id="path8044" /></g><g
           id="g8046"
           transform="translate(244.8711,67.6748)"><path
             d="m 0,0 c 3.521,1.365 5.842,4.754 5.842,8.53 v 24.346 c -7.08,0.754 -13.387,3.055 -18.73,6.469 V 21.126 c 0,-2.459 -1.511,-4.666 -3.804,-5.555 l -8.76,-3.395 6.303,-8.697 c 2.786,-2.961 5.883,-5.402 9.174,-7.346 z"
             style="fill:#ffbd86;fill-opacity:1;fill-rule:nonzero;stroke:none"
             id="path8048" /></g><g
           id="g8050"
           transform="translate(213.8657,167.9492)"><path
             d="m 0,0 v 2.059 c 0,2.252 1.923,4.031 4.152,3.862 21.981,-1.579 43.349,5.405 60.263,16.454 1.579,1.032 3.669,0.775 4.953,-0.604 C 83.828,6.229 82.74,6.83 82.74,4.801 v -5.17 c 5.793,0.747 11.92,-1.107 15.479,-4.475 v 23.329 c 0,31.399 -25.452,56.851 -56.85,56.851 -31.399,0 -56.85,-25.452 -56.85,-56.851 V -5.222 C -11.708,-1.608 -5.333,0.446 0,0"
             style="fill:#695d67;fill-opacity:1;fill-rule:nonzero;stroke:none"
             id="path8052" /></g><g
           id="g8054"
           transform="translate(222.8842,186.4355)"><path
             d="M 0,0 C 0,27.19 19.093,49.908 44.6,55.512 40.653,56.379 36.557,56.85 32.35,56.85 0.952,56.85 -24.5,31.397 -24.5,0 v -23.708 c 3.774,3.613 10.148,5.668 15.481,5.222 v 2.058 c 0,2.252 1.923,4.032 4.153,3.863 1.626,-0.118 3.248,-0.173 4.866,-0.198 z"
             style="fill:#544e55;fill-opacity:1;fill-rule:nonzero;stroke:none"
             id="path8056" /></g><g
           id="g8058"
           transform="translate(342.3359,60.3838)"><path
             d="m 0,0 -51.014,19.756 -6.574,-6.985 c -16.232,-17.248 -42.795,-17.248 -59.028,0 l -6.301,6.696 L -173.131,0 c 0,0 -23.243,-9.556 -23.243,-36.053 v -8.984 c 0,-4.334 3.513,-7.847 7.847,-7.847 H 15.397 c 4.333,0 7.847,3.513 7.847,7.847 v 8.984 C 23.244,-9.556 0,0 0,0"
             style="fill:#fee55a;fill-opacity:1;fill-rule:nonzero;stroke:none"
             id="path8060" /></g><g
           id="g8062"
           transform="translate(172.9624,15.3457)"><path
             d="M 0,0 V 20.558 C 0,38.289 10.402,48.425 17.289,53.196 L -3.757,45.038 C -3.757,45.038 -27,35.482 -27,8.985 V 0 c 0,-4.333 3.513,-7.846 7.846,-7.846 h 27 C 3.513,-7.846 0,-4.333 0,0"
             style="fill:#ffd301;fill-opacity:1;fill-rule:nonzero;stroke:none"
             id="path8064" /></g><g
           id="g8066"
           transform="translate(395.8466,504.5)"><path
             d="m 0,0 h -279.634 c -11.047,0 -20.086,-9.039 -20.086,-20.086 v -56.911 c 0,-11.048 9.038,-20.087 20.086,-20.087 h 96.324 c 11.408,0 21.978,-5.991 27.838,-15.778 l 7.914,-13.22 c 3.502,-5.851 11.979,-5.851 15.482,0 l 7.914,13.22 c 5.86,9.787 16.43,15.778 27.838,15.778 H 0 c 11.048,0 20.086,9.039 20.086,20.087 v 56.911 C 20.086,-9.039 11.048,0 0,0"
             style="fill:#60b8fe;fill-opacity:1;fill-rule:nonzero;stroke:none"
             id="path8068" /></g><g
           id="g8070"
           transform="translate(252.0371,407.416)"><path
             d="m 0,0 h -39.5 c 11.408,0 21.978,-5.991 27.837,-15.778 l 7.915,-13.221 c 3.502,-5.85 11.978,-5.85 15.481,0 l 7.914,13.221 c 1.182,1.972 2.563,3.783 4.095,5.429 C 17.674,-3.827 9.108,0 0,0"
             style="fill:#23a8fe;fill-opacity:1;fill-rule:nonzero;stroke:none"
             id="path8072" /></g><g
           id="g8074"
           transform="translate(135.6264,427.5029)"><path
             d="m 0,0 v 56.911 c 0,11.047 9.039,20.086 20.086,20.086 h -39.5 C -30.461,76.997 -39.5,67.958 -39.5,56.911 V 0 c 0,-11.048 9.039,-20.087 20.086,-20.087 h 39.5 C 9.039,-20.087 0,-11.048 0,0"
             style="fill:#23a8fe;fill-opacity:1;fill-rule:nonzero;stroke:none"
             id="path8076" /></g><g
           id="g8078"
           transform="translate(296.6054,170.58)"><path
             d="m 0,0 v -31.535 c 0,-0.469 -0.02,-0.934 -0.035,-1.4 11.058,-1.448 20.662,6.6 20.662,16.466 C 20.627,-6.587 11.021,1.422 0,0"
             style="fill:#fed2a4;fill-opacity:1;fill-rule:nonzero;stroke:none"
             id="path8080" /></g><g
           id="g8082"
           transform="translate(213.8657,139.0449)"><path
             d="m 0,0 v 31.904 c -9.741,0.816 -20.626,-6.718 -20.626,-16.836 0,-9.939 9.557,-18.096 20.67,-16.859 C 0.018,-1.195 0,-0.599 0,0"
             style="fill:#fed2a4;fill-opacity:1;fill-rule:nonzero;stroke:none"
             id="path8084" /></g><g
           id="g8086"
           transform="translate(296.6054,152.9179)"><path
             d="m 0,0 v -13.873 c 0,-0.469 -0.02,-0.934 -0.035,-1.399 11.057,-1.449 20.662,6.599 20.662,16.465 0,2.75 -0.766,5.343 -2.076,7.64 C 15.154,2.88 7.968,-1.029 0,0"
             style="fill:#ffbd86;fill-opacity:1;fill-rule:nonzero;stroke:none"
             id="path8088" /></g><g
           id="g8090"
           transform="translate(213.8657,152.5263)"><path
             d="m 0,0 c -7.96,-0.868 -15.095,3.091 -18.503,9.058 -1.334,-2.231 -2.123,-4.757 -2.123,-7.471 0,-9.94 9.557,-18.097 20.67,-16.859 C 0.018,-14.677 0,-14.08 0,-13.481 Z"
             style="fill:#ffbd86;fill-opacity:1;fill-rule:nonzero;stroke:none"
             id="path8092" /></g><g
           id="g8094"
           transform="translate(283.2334,192.7207)"><path
             d="m 0,0 c -1.283,1.379 -3.374,1.636 -4.953,0.604 -16.913,-11.049 -39.282,-18.034 -61.262,-16.455 -2.23,0.169 -4.153,-1.61 -4.153,-3.862 v -33.963 c 0,-21.828 17.104,-41.764 42.974,-41.764 23.031,0 41.766,18.736 41.766,41.764 v 36.705 C 14.372,-14.941 14.46,-15.543 0,0"
             style="fill:#fed2a4;fill-opacity:1;fill-rule:nonzero;stroke:none"
             id="path8096" /></g><g
           id="g8098"
           transform="translate(231.1889,139.0449)"><path
             d="m 0,0 v 37.972 c -4.704,-0.408 -9.445,-0.487 -14.171,-0.147 -2.229,0.169 -4.152,-1.61 -4.152,-3.862 V 0 c 0,-21.828 17.103,-41.765 42.974,-41.765 3.03,0 5.983,0.333 8.832,0.949 C 13.004,-36.621 0,-19.031 0,0"
             style="fill:#ffbd86;fill-opacity:1;fill-rule:nonzero;stroke:none"
             id="path8100" /></g><g
           id="g8102"
           transform="translate(385.1826,365.4863)"><path
             d="m 0,0 c -34.238,-0.25 -61.628,-28.629 -61.628,-62.868 v -23.287 c 4.177,3.397 10.073,6.605 17.034,5.634 h 0.025 11.774 c 1.536,0 10.173,0.704 9.538,0.656 10.61,0.811 19.83,7.99 22.734,18.227 0.089,0.318 0.173,0.638 0.252,0.96 0.084,0.343 0.383,0.587 0.736,0.587 0.353,0 0.653,-0.244 0.736,-0.587 0.078,-0.318 0.161,-0.635 0.25,-0.949 2.874,-10.151 11.974,-17.303 22.486,-18.194 7.822,-0.663 7.928,-0.7 9.338,-0.7 h 12.222 0.024 c 7.092,1.011 13.139,-2.092 17.037,-5.634 v 24.064 C 62.558,-27.644 34.508,0.252 0,0 Z"
             style="fill:none;stroke:#000000;stroke-width:15;stroke-linecap:round;stroke-linejoin:round;stroke-miterlimit:10;stroke-dasharray:none;stroke-opacity:1"
             id="path8104" /></g><g
           id="g8106"
           transform="translate(340.6133,251.9765)"><path
             d="m 0,0 v 32.989 h -0.024 c -6.955,0.97 -12.849,-2.232 -17.024,-5.627 -2.812,-3.04 -4.524,-7.005 -4.524,-11.347 0,-10.561 10.108,-18.891 21.598,-17.085 C 0.018,-0.713 0,-0.357 0,0 Z"
             style="fill:none;stroke:#000000;stroke-width:15;stroke-linecap:round;stroke-linejoin:round;stroke-miterlimit:10;stroke-dasharray:none;stroke-opacity:1"
             id="path8108" /></g><g
           id="g8110"
           transform="translate(447.7168,279.3515)"><path
             d="m 0,0 c -3.898,3.533 -9.935,6.623 -17.013,5.614 h -0.024 v -32.551 c 0,-0.505 -0.022,-1.005 -0.039,-1.506 11.495,-1.814 21.611,6.518 21.611,17.083 C 4.535,-7.012 2.819,-3.042 0,0 Z"
             style="fill:none;stroke:#000000;stroke-width:15;stroke-linecap:round;stroke-linejoin:round;stroke-miterlimit:10;stroke-dasharray:none;stroke-opacity:1"
             id="path8112" /></g><g
           id="g8114"
           transform="translate(410.6933,199.9101)"><path
             d="m 0,0 c 0.005,-1.888 1.167,-3.578 2.927,-4.259 3.277,-1.269 27.692,-10.725 37.413,-14.49 22.64,9.084 20.805,40.224 9.713,45.943 -3.555,1.833 -6.707,3.923 -9.037,6.648 -4.481,5.238 -6.885,13.213 -7.104,20.213 -3.828,-2.61 -8.749,-3.877 -13.958,-3.058 -0.5,-14.846 -8.343,-28.029 -19.99,-35.846 z"
             style="fill:none;stroke:#000000;stroke-width:15;stroke-linecap:round;stroke-linejoin:round;stroke-miterlimit:10;stroke-dasharray:none;stroke-opacity:1"
             id="path8116" /></g><g
           id="g8118"
           transform="translate(312.0547,186.4355)"><path
             d="m 0,0 v -1.307 c 2.045,-1.648 4.432,-3.057 7.206,-4.13 21.249,8.238 16.401,6.359 36.303,14.074 1.264,0.49 4.458,1.325 4.458,4.865 V 28.913 C 36.067,36.939 28.919,50.268 28.576,64.47 23.373,63.654 18.457,64.922 14.632,67.529 14.414,60.529 12.01,52.555 7.529,47.316 5.198,44.592 2.047,42.502 -1.508,40.669 -4.757,38.993 -7.312,35.129 -8.747,30.284 -3.214,21.515 0,11.135 0,0 Z"
             style="fill:none;stroke:#000000;stroke-width:15;stroke-linecap:round;stroke-linejoin:round;stroke-miterlimit:10;stroke-dasharray:none;stroke-opacity:1"
             id="path8120" /></g><g
           id="g8122"
           transform="translate(464.0713,124.7959)"><path
             d="M 0,0 V -74.613"
             style="fill:none;stroke:#000000;stroke-width:15;stroke-linecap:round;stroke-linejoin:round;stroke-miterlimit:10;stroke-dasharray:none;stroke-opacity:1"
             id="path8124" /></g><g
           id="g8126"
           transform="translate(418.458,284.9658)"><path
             d="m 0,0 c -1.41,0 -1.517,0.036 -9.338,0.699 -10.513,0.892 -19.612,8.043 -22.486,18.195 -0.089,0.314 -0.172,0.63 -0.25,0.949 -0.083,0.343 -0.383,0.587 -0.737,0.587 -0.352,0 -0.652,-0.244 -0.736,-0.587 -0.078,-0.322 -0.162,-0.643 -0.252,-0.96 C -36.702,8.646 -45.923,1.467 -56.532,0.655 -55.897,0.703 -64.535,0 -66.07,0 h -11.775 v -32.989 c 0,-23.143 18.091,-44.299 45.495,-44.391 24.514,-0.082 44.572,20.315 44.572,44.828 l 0,32.552 z"
             style="fill:none;stroke:#000000;stroke-width:15;stroke-linecap:round;stroke-linejoin:round;stroke-miterlimit:10;stroke-dasharray:none;stroke-opacity:1"
             id="path8128" /></g><g
           id="g8130"
           transform="translate(386.3281,161.1552)"><path
             d="M 0,0 C 20.777,-0.069 39.381,9.839 51.449,25.141 42.94,28.436 35.814,31.195 33.48,32.1 l -6.188,2.396 c -1.755,0.678 -2.922,2.367 -2.927,4.259 L 24.329,53.902 C 8.116,43.022 -12.353,44.774 -26.307,54.187 V 38.782 c 0,-3.504 -3.126,-4.348 -4.458,-4.865 l -4.146,-1.607 v 10e-4 c -2.152,-0.835 -9.51,-3.688 -18.331,-7.108 C -41.524,10.206 -22.985,0.077 0,0 Z"
             style="fill:none;stroke:#000000;stroke-width:15;stroke-linecap:round;stroke-linejoin:round;stroke-miterlimit:10;stroke-dasharray:none;stroke-opacity:1"
             id="path8132" /></g><g
           id="g8134"
           transform="translate(169.5097,344.6074)"><path
             d="m 0,0 c -4.315,-0.332 -8.274,2.382 -9.105,6.629 -1.399,7.153 -4.94,14.252 -18.774,14.252 h -47.997 c -17.616,0 -31.895,-14.28 -31.895,-31.896 V -46.02 c 0,-7.417 6.012,-13.429 13.429,-13.429 h 54.475 c 12.184,0 22.766,6.836 28.136,16.879 0.416,0.778 1.598,0.474 1.598,-0.409 0,-9.058 7.411,-16.47 16.47,-16.47 4.748,0 8.633,3.886 8.633,8.634 v 36.528 C 14.97,-5.682 7.462,0.574 0,0 Z"
             style="fill:none;stroke:#000000;stroke-width:15;stroke-linecap:round;stroke-linejoin:round;stroke-miterlimit:10;stroke-dasharray:none;stroke-opacity:1"
             id="path8136" /></g><g
           id="g8138"
           transform="translate(180.7212,286.6797)"><path
             d="m 0,0 c -1.39,-0.957 -3.069,-1.521 -4.875,-1.521 -1.166,0 -2.303,0.125 -3.402,0.358 v -32.746 c 0,-0.396 -0.02,-0.786 -0.031,-1.18 11.6,-1.359 21.253,7.11 21.253,17.471 C 12.945,-9.656 7.663,-2.187 0,0 Z"
             style="fill:none;stroke:#000000;stroke-width:15;stroke-linecap:round;stroke-linejoin:round;stroke-miterlimit:10;stroke-dasharray:none;stroke-opacity:1"
             id="path8140" /></g><g
           id="g8142"
           transform="translate(80.812,252.7705)"><path
             d="m 0,0 v 32.388 h -5.645 c -1.432,0 -2.809,0.229 -4.104,0.644 -6.464,-2.744 -11.474,-9.408 -11.474,-16.741 0,-10.349 9.634,-18.832 21.251,-17.47 C 0.019,-0.786 0,-0.395 0,0 Z"
             style="fill:none;stroke:#000000;stroke-width:15;stroke-linecap:round;stroke-linejoin:round;stroke-miterlimit:10;stroke-dasharray:none;stroke-opacity:1"
             id="path8144" /></g><g
           id="g8146"
           transform="translate(159.3764,301.6289)"><path
             d="M 0,0 C 0,0.883 -1.182,1.187 -1.598,0.408 -6.967,-9.635 -17.549,-16.471 -29.734,-16.471 h -48.83 v -32.387 c 0,-23.604 18.494,-45.163 46.469,-45.163 24.903,0 45.162,20.26 45.162,45.163 v 32.746 C 5.627,-14.533 0,-7.893 0,0 Z"
             style="fill:none;stroke:#000000;stroke-width:15;stroke-linecap:round;stroke-linejoin:round;stroke-miterlimit:10;stroke-dasharray:none;stroke-opacity:1"
             id="path8148" /></g><g
           id="g8150"
           transform="translate(48.4785,124.7959)"><path
             d="M 0,0 V -74.613"
             style="fill:none;stroke:#000000;stroke-width:15;stroke-linecap:round;stroke-linejoin:round;stroke-miterlimit:10;stroke-dasharray:none;stroke-opacity:1"
             id="path8152" /></g><g
           id="g8154"
           transform="translate(160.0049,193.665)"><path
             d="m 0,0 -5.128,1.986 c -0.758,0.292 -1.455,0.809 -1.984,1.505 -0.59,0.776 -0.94,1.732 -0.943,2.754 L -8.069,21.296 C -24.168,10.762 -44.538,12.188 -58.727,21.364 V 6.272 c 0,-1.213 -0.379,-2.102 -0.924,-2.775 -1.031,-1.269 -2.662,-1.752 -3.534,-2.09 -0.732,-0.283 -1.955,-0.758 -3.559,-1.379 9.276,-6.442 20.876,-10.332 34.187,-10.332 C -20.451,-10.304 -9.22,-6.488 0,0 Z"
             style="fill:none;stroke:#000000;stroke-width:15;stroke-linecap:round;stroke-linejoin:round;stroke-miterlimit:10;stroke-dasharray:none;stroke-opacity:1"
             id="path8156" /></g><g
           id="g8158"
           transform="translate(212.8789,137.2539)"><path
             d="m 0,0 c -11.113,-1.236 -19.67,6.92 -19.67,16.859 0,4.642 2.084,8.737 5.277,11.734 -0.043,-0.04 -0.089,-0.078 -0.131,-0.119 V 41.56 l -38.35,14.851 c -9.22,-6.488 -20.451,-10.304 -32.556,-10.304 -13.312,0 -24.912,3.89 -34.188,10.331 L -178.49,33.615 c -10.589,-4.357 -24.767,-18.069 -24.767,-38.416 v -74.017 c 0,-4.558 3.695,-8.253 8.253,-8.253 h 137.678 c 6.395,7.223 13.622,10.201 13.622,10.201 l 58.973,22.862 c 2.293,0.889 3.805,3.096 3.805,5.555 v 15.219 0 C 7.59,-25.897 0.576,-13.408 0,0 Z"
             style="fill:none;stroke:#000000;stroke-width:15;stroke-linecap:round;stroke-linejoin:round;stroke-miterlimit:10;stroke-dasharray:none;stroke-opacity:1"
             id="path8160" /></g><g
           id="g8162"
           transform="translate(136.9804,469.5996)"><path
             d="M 0,0 H 238.038"
             style="fill:none;stroke:#020202;stroke-width:15;stroke-linecap:round;stroke-linejoin:round;stroke-miterlimit:10;stroke-dasharray:none;stroke-opacity:1"
             id="path8164" /></g><g
           id="g8166"
           transform="translate(136.9804,442.3164)"><path
             d="M 0,0 H 238.038"
             style="fill:none;stroke:#020202;stroke-width:15;stroke-linecap:round;stroke-linejoin:round;stroke-miterlimit:10;stroke-dasharray:none;stroke-opacity:1"
             id="path8168" /></g><g
           id="g8170"
           transform="translate(283.2031,192.7207)"><path
             d="m 0,0 c -1.283,1.379 -3.374,1.636 -4.953,0.604 -16.913,-11.049 -39.282,-18.034 -61.262,-16.455 -2.23,0.169 -4.153,-1.61 -4.153,-3.862 v -33.963 c 0,-21.828 17.104,-41.764 42.974,-41.764 23.031,0 41.766,18.736 41.766,41.764 v 36.705 C 14.372,-14.941 14.46,-15.543 0,0 Z"
             style="fill:none;stroke:#000000;stroke-width:15;stroke-linecap:round;stroke-linejoin:round;stroke-miterlimit:10;stroke-dasharray:none;stroke-opacity:1"
             id="path8172" /></g><g
           id="g8174"
           transform="translate(255.8095,97.2802)"><path
             d="M 0,0 C -9.185,0 -17.255,2.521 -23.857,6.739 V -8.479 c 0,-2.459 -1.511,-4.667 -3.804,-5.555 l -8.76,-3.396 6.303,-6.697 c 16.233,-17.247 42.795,-17.247 59.026,10e-4 l 6.574,6.985 -8.213,3.182 c -2.179,0.844 -3.616,2.939 -3.616,5.276 V 7.368 C 16.924,2.727 8.776,0 0,0 Z"
             style="fill:none;stroke:#000000;stroke-width:15;stroke-linecap:round;stroke-linejoin:round;stroke-miterlimit:10;stroke-dasharray:none;stroke-opacity:1"
             id="path8176" /></g><g
           id="g8178"
           transform="translate(212.8354,170.9492)"><path
             d="m 0,0 v 2.059 c 0,2.252 1.923,4.031 4.152,3.862 21.981,-1.579 44.349,5.405 61.263,16.454 1.579,1.032 3.669,0.775 4.953,-0.604 C 84.828,6.229 84.74,6.83 84.74,4.801 v -5.17 c 5.794,0.747 10.92,-1.107 14.479,-4.475 v 20.329 c 0,31.399 -25.452,56.851 -56.85,56.851 -31.399,0 -56.85,-25.452 -56.85,-56.851 V -5.222 C -10.708,-1.608 -5.333,0.446 0,0 Z"
             style="fill:none;stroke:#000000;stroke-width:15;stroke-linecap:round;stroke-linejoin:round;stroke-miterlimit:10;stroke-dasharray:none;stroke-opacity:1"
             id="path8180" /></g><g
           id="g8182"
           transform="translate(297.5752,170.58)"><path
             d="m 0,0 v -31.535 c 0,-0.469 -0.02,-0.934 -0.035,-1.4 11.058,-1.448 19.662,6.6 19.662,16.466 C 19.627,-6.587 11.021,1.422 0,0 Z"
             style="fill:none;stroke:#000000;stroke-width:15;stroke-linecap:round;stroke-linejoin:round;stroke-miterlimit:10;stroke-dasharray:none;stroke-opacity:1"
             id="path8184" /></g><g
           id="g8186"
           transform="translate(212.8354,139.0449)"><path
             d="m 0,0 v 31.904 c -9.741,0.816 -19.626,-6.718 -19.626,-16.836 0,-9.939 8.557,-18.096 19.67,-16.859 C 0.018,-1.195 0,-0.599 0,0 Z"
             style="fill:none;stroke:#000000;stroke-width:15;stroke-linecap:round;stroke-linejoin:round;stroke-miterlimit:10;stroke-dasharray:none;stroke-opacity:1"
             id="path8188" /></g><g
           id="g8190"
           transform="translate(342.3056,60.3838)"><path
             d="m 0,0 -51.014,19.756 -6.574,-6.985 c -16.232,-17.248 -42.795,-17.248 -59.027,0 l -6.302,6.696 L -173.131,0 c 0,0 -23.243,-9.556 -23.243,-36.053 v -8.984 c 0,-4.334 3.514,-7.847 7.847,-7.847 H 15.397 c 4.333,0 7.847,3.513 7.847,7.847 v 8.984 C 23.244,-9.556 0,0 0,0 Z"
             style="fill:none;stroke:#000000;stroke-width:15;stroke-linecap:round;stroke-linejoin:round;stroke-miterlimit:10;stroke-dasharray:none;stroke-opacity:1"
             id="path8192" /></g><g
           id="g8194"
           transform="translate(415.9023,476.3447)"><path
             d="M 0,0 V 8.069 C 0,19.116 -9.038,28.155 -20.086,28.155 H -299.72 c -11.047,0 -20.086,-9.039 -20.086,-20.086 v -56.911 c 0,-11.048 9.038,-20.087 20.086,-20.087 h 96.324 c 11.409,0 21.978,-5.99 27.838,-15.778 l 7.914,-13.22 c 3.502,-5.85 11.979,-5.85 15.482,0 l 7.914,13.22 c 5.86,9.788 16.43,15.778 27.838,15.778 h 96.324 C -9.038,-68.929 0,-59.89 0,-48.842 V -35"
             style="fill:none;stroke:#020202;stroke-width:15;stroke-linecap:round;stroke-linejoin:round;stroke-miterlimit:10;stroke-dasharray:none;stroke-opacity:1"
             id="path8196" /></g><g
           id="g8198"
           transform="translate(355.9287,50.1826)"><path
             d="M 0,0 H 24.974"
             style="fill:none;stroke:#000000;stroke-width:15;stroke-linecap:round;stroke-linejoin:round;stroke-miterlimit:10;stroke-dasharray:none;stroke-opacity:1"
             id="path8200" /></g><g
           id="g8202"
           transform="translate(415.9023,50.1826)"><path
             d="m 0,0 h 78.222 c 4.555,0 8.254,3.692 8.254,8.253 v 74.018 c 0,17.506 -11.205,32.833 -24.767,38.416 -5.795,2.244 -51.165,19.814 -57.803,22.384 l -6.188,2.398 c -1.755,0.678 -2.922,2.367 -2.927,4.259 l -0.036,15.148 c -16.213,-10.881 -36.682,-9.129 -50.636,0.283 v -15.404 c 0,-3.504 -3.126,-4.349 -4.458,-4.865 l -4.146,-1.608 c -3.789,-1.469 -23.724,-9.197 -39.363,-15.26"
             style="fill:none;stroke:#000000;stroke-width:15;stroke-linecap:round;stroke-linejoin:round;stroke-miterlimit:10;stroke-dasharray:none;stroke-opacity:1"
             id="path8204" /></g></g></g></g></svg>
