<svg id="Capa_1" enable-background="new 0 0 605.815 605.815" height="512" viewBox="0 0 605.815 605.815" width="512" xmlns="http://www.w3.org/2000/svg"><g><g id="Page-1_35_"><g id="_x30_36---Top"><path id="Shape_71_" d="m548.807 98.617c-1.613-4.541-4.104-8.719-7.33-12.298-3.425-4.083-7.643-7.429-12.399-9.834l-150.979-75.425c-1.402-.699-2.947-1.062-4.513-1.06h-141.358c-1.566-.001-3.111.361-4.513 1.06l-151.05 75.485c-4.592 2.305-8.677 5.504-12.015 9.41-3.323 3.62-5.897 7.861-7.573 12.48l-50.777 135.369c-4.98 13.188-.204 28.068 11.521 35.895l31.654 21.143c13.231 8.689 30.913 5.793 40.68-6.664l16.872-21.729c.172-.212.384-.384.535-.606 0-.061 0-.121.071-.172l19.82-25.464c9.519 110.047 7.726 220.781-5.351 330.462-1.007 9.41 4.61 18.271 13.55 21.375 20.184 6.664 68.709 17.771 167.255 17.771s147.072-11.107 167.326-17.801c8.884-3.155 14.435-12.003 13.409-21.375-13.078-109.671-14.871-220.394-5.351-330.431l19.81 25.454c0 .05 0 .121.081.182.19.236.392.462.606.676l16.842 21.648c9.766 12.515 27.51 15.425 40.761 6.684l31.644-21.133c11.69-7.83 16.449-22.677 11.49-35.844zm-324.313-52.06c9.242 35.39 41.864 59.581 78.413 58.148 36.54 1.435 69.157-22.748 78.402-58.128 1.756-6.457 2.806-13.086 3.13-19.77l19.295 9.643c-.604 5.193-1.568 10.339-2.888 15.398-11.811 44.083-52.319 74.309-97.94 73.081-45.621 1.228-86.129-28.998-97.94-73.081-1.33-5.059-2.305-10.204-2.918-15.398l19.295-9.643c.336 6.678 1.392 13.3 3.151 19.75zm17.024-26.363h122.778c.229 7.115-.608 14.225-2.484 21.092-7.062 26.444-31.561 44.422-58.905 43.225-27.353 1.195-51.858-16.791-58.915-43.245-1.869-6.862-2.703-13.964-2.474-21.072zm-180.876 253.826-31.563-21.082c-3.946-2.604-5.557-7.596-3.877-12.015l6.866-18.286 52.504 35.773-10.38 13.389c-3.225 4.197-9.155 5.17-13.55 2.221zm242.265 311.601c-99.293 0-145.618-11.723-160.702-16.761 14.487-119.51 15.432-240.273 2.817-359.995-1.878-16.529-4.19-33.007-6.826-48.97-.915-5.501-6.115-9.219-11.616-8.305-5.501.915-9.219 6.115-8.305 11.616 2.373 14.338 4.422 29.13 6.189 44.012l-27.423 35.218-57.664-39.256 36.702-97.839c.833-2.255 2.118-4.317 3.776-6.058 1.654-1.958 3.683-3.565 5.967-4.725l97.233-48.607c.677 3.756 1.444 7.492 2.433 11.167 13.921 53.064 62.579 89.533 117.417 88.005 54.838 1.528 103.496-34.941 117.417-88.005 1.01-3.675 1.757-7.411 2.433-11.167l97.163 48.556c2.454 1.249 4.623 2.992 6.371 5.119 1.566 1.705 2.768 3.712 3.534 5.897l36.611 97.657-57.684 39.257-27.423-35.228c1.757-14.863 3.817-29.655 6.189-44.002.915-5.501-2.804-10.702-8.305-11.616-5.501-.915-10.702 2.804-11.616 8.305-2.635 15.963-4.948 32.441-6.826 48.94-12.648 119.735-11.632 240.52 3.029 360.026-15.273 5.036-61.598 16.759-160.891 16.759zm273.868-332.714-31.543 21.072c-4.421 2.975-10.392 2.003-13.641-2.221l-10.39-13.348 52.504-35.773 6.876 18.316c1.662 4.385.086 9.337-3.806 11.954z"/><path id="Path_43_" clip-rule="evenodd" d="m242.325 181.744h-50.485c-5.576 0-10.097 4.521-10.097 10.097s4.521 10.097 10.097 10.097h50.485c5.576 0 10.097-4.521 10.097-10.097s-4.52-10.097-10.097-10.097z" fill-rule="evenodd"/><path id="Path_42_" clip-rule="evenodd" d="m242.325 222.132h-50.485c-5.576 0-10.097 4.521-10.097 10.097s4.521 10.097 10.097 10.097h50.485c5.576 0 10.097-4.521 10.097-10.097s-4.52-10.097-10.097-10.097z" fill-rule="evenodd"/><path id="Shape_70_" d="m393.779 171.647c-22.306 0-40.388 18.082-40.388 40.388s18.082 40.388 40.388 40.388c22.305 0 40.388-18.082 40.388-40.388s-18.082-40.388-40.388-40.388zm0 60.582c-11.153 0-20.194-9.041-20.194-20.194s9.041-20.194 20.194-20.194 20.194 9.041 20.194 20.194-9.041 20.194-20.194 20.194z"/><path id="Path_41_" clip-rule="evenodd" d="m201.938 535.136h-30.291c-5.576 0-10.097 4.521-10.097 10.097s4.521 10.097 10.097 10.097h30.291c5.576 0 10.097-4.521 10.097-10.097s-4.521-10.097-10.097-10.097z" fill-rule="evenodd"/></g></g></g></svg>