<?xml version="1.0" encoding="UTF-8" standalone="no"?>
<!-- Created with Inkscape (http://www.inkscape.org/) -->

<svg
   version="1.1"
   id="svg897"
   xml:space="preserve"
   width="682.66669"
   height="682.66669"
   viewBox="0 0 682.66669 682.66669"
   xmlns="http://www.w3.org/2000/svg"
   xmlns:svg="http://www.w3.org/2000/svg"><defs
     id="defs901"><clipPath
       clipPathUnits="userSpaceOnUse"
       id="clipPath911"><path
         d="M 0,512 H 512 V 0 H 0 Z"
         id="path909" /></clipPath></defs><g
     id="g903"
     transform="matrix(1.3333333,0,0,-1.3333333,0,682.66667)"><g
       id="g905"><g
         id="g907"
         clip-path="url(#clipPath911)"><g
           id="g913"
           transform="translate(131.4839,480.4419)"><path
             d="m 0,0 c -73.993,-31.031 -105.115,-86.117 -118.031,-122.82 -6.371,-18.104 7.213,-37.051 26.405,-37.051 h 216.142 216.14 c 19.335,0 32.744,19.138 26.296,37.366 C 348.246,-69.624 291.816,20.952 124.516,23.374 89.284,22.864 58.968,18.444 32.887,11.29"
             style="fill:none;stroke:#000000;stroke-width:15;stroke-linecap:round;stroke-linejoin:round;stroke-miterlimit:10;stroke-dasharray:none;stroke-opacity:1"
             id="path915" /></g><g
           id="g917"
           transform="translate(471.0093,246.8374)"><path
             d="m 0,0 h -430.019 c -18.536,0 -33.563,15.026 -33.563,33.563 v 6.608 c 0,18.536 15.027,33.563 33.563,33.563 L 0,73.734 c 18.537,0 33.563,-15.027 33.563,-33.563 V 33.563 C 33.563,15.026 18.537,0 0,0 Z"
             style="fill:none;stroke:#000000;stroke-width:15;stroke-linecap:round;stroke-linejoin:round;stroke-miterlimit:10;stroke-dasharray:none;stroke-opacity:1"
             id="path919" /></g><g
           id="g921"
           transform="translate(102.9238,115.0352)"><path
             d="M 0,0 H -61.933 C -80.47,0 -95.496,15.026 -95.496,33.563 v 6.608 c 0,18.201 14.488,33.018 32.56,33.548"
             style="fill:none;stroke:#000000;stroke-width:15;stroke-linecap:round;stroke-linejoin:round;stroke-miterlimit:10;stroke-dasharray:none;stroke-opacity:1"
             id="path923" /></g><g
           id="g925"
           transform="translate(473.1162,188.7041)"><path
             d="m 0,0 c 17.555,-1.087 31.456,-15.669 31.456,-33.498 v -6.608 c 0,-18.537 -15.026,-33.563 -33.563,-33.563 h -321.236"
             style="fill:none;stroke:#000000;stroke-width:15;stroke-linecap:round;stroke-linejoin:round;stroke-miterlimit:10;stroke-dasharray:none;stroke-opacity:1"
             id="path927" /></g><g
           id="g929"
           transform="translate(102.9243,167.1206)"><path
             d="m 0,0 c -2.636,0.585 -5.587,0.919 -8.96,0.919 -9.956,0 -16.239,-3.464 -21.559,-7.836 -12.947,-10.639 -32.418,-1.557 -32.418,15.201 v 39.657"
             style="fill:none;stroke:#000000;stroke-width:15;stroke-linecap:round;stroke-linejoin:round;stroke-miterlimit:10;stroke-dasharray:none;stroke-opacity:1"
             id="path931" /></g><g
           id="g933"
           transform="translate(471.7959,215.062)"><path
             d="m 0,0 v -39.661 c 0,-16.757 -19.471,-25.841 -32.417,-15.201 -5.321,4.374 -11.606,7.84 -21.565,7.84 -26.988,0 -26.988,-21.378 -53.976,-21.378 -26.988,0 -26.988,21.378 -53.976,21.378 -26.987,0 -26.987,-21.378 -53.974,-21.378 -26.987,0 -26.987,21.378 -53.974,21.378 -26.362,0 -26.973,-20.398 -52.141,-21.344"
             style="fill:none;stroke:#000000;stroke-width:15;stroke-linecap:round;stroke-linejoin:round;stroke-miterlimit:10;stroke-dasharray:none;stroke-opacity:1"
             id="path935" /></g><g
           id="g937"
           transform="translate(40.9907,115.0352)"><path
             d="m 0,0 c 0,0 -14.829,-71.608 69.559,-99.778 14.456,-4.826 29.547,-7.073 44.682,-7.073 h 100.768 100.769 c 15.135,0 30.226,2.247 44.682,7.073 C 444.848,-71.608 430.019,0 430.019,0"
             style="fill:none;stroke:#000000;stroke-width:15;stroke-linecap:round;stroke-linejoin:round;stroke-miterlimit:10;stroke-dasharray:none;stroke-opacity:1"
             id="path939" /></g><g
           id="g941"
           transform="translate(186.8125,434.207)"><path
             d="M 0,0 6.506,12.039"
             style="fill:none;stroke:#000000;stroke-width:15;stroke-linecap:round;stroke-linejoin:round;stroke-miterlimit:10;stroke-dasharray:none;stroke-opacity:1"
             id="path943" /></g><g
           id="g945"
           transform="translate(255.9102,433.3843)"><path
             d="M 0,0 V 13.684"
             style="fill:none;stroke:#000000;stroke-width:15;stroke-linecap:round;stroke-linejoin:round;stroke-miterlimit:10;stroke-dasharray:none;stroke-opacity:1"
             id="path947" /></g><g
           id="g949"
           transform="translate(325.1875,434.3076)"><path
             d="M 0,0 -6.865,11.837"
             style="fill:none;stroke:#000000;stroke-width:15;stroke-linecap:round;stroke-linejoin:round;stroke-miterlimit:10;stroke-dasharray:none;stroke-opacity:1"
             id="path951" /></g><g
           id="g953"
           transform="translate(313.8042,214.7661)"><path
             d="M 0,0 H 157.992 V 32.071 H -273.6 V 0 h 46.291 c 9.631,0 17.438,-7.807 17.438,-17.437 v -92.367 c 0,-12.312 9.981,-22.294 22.293,-22.294 12.313,0 22.294,9.982 22.294,22.294 v 92.367 c 0,9.63 7.807,17.437 17.437,17.437 h 112.678"
             style="fill:none;stroke:#000000;stroke-width:15;stroke-linecap:round;stroke-linejoin:round;stroke-miterlimit:10;stroke-dasharray:none;stroke-opacity:1"
             id="path955" /></g></g></g></g></svg>
