<svg xmlns="http://www.w3.org/2000/svg" version="1.1" xmlns:xlink="http://www.w3.org/1999/xlink" xmlns:svgjs="http://svgjs.com/svgjs" width="512" height="512" x="0" y="0" viewBox="0 0 411.252 411.252" style="enable-background:new 0 0 512 512" xml:space="preserve" class=""><g>
<g>
	<g>
		<path d="M271.638,230.32c-2.002-2.002-5.238-2.002-7.24,0l-5.094,5.094l-29.276-26.88l30.909-33.664
			c13.747,9.242,29.686,13.896,45.645,13.896c20.966,0,41.933-7.982,57.897-23.941c30.561-30.561,66.606-116.669,33.741-149.53
			c-14.771-14.776-41.851-17.229-76.237-6.897c-27.924,8.387-57.375,24.719-73.293,40.637
			c-28.109,28.109-31.437,71.721-10.051,103.542l-35.594,32.676l-31.211-28.954l0.742-0.742
			c10.127-10.122,15.698-23.578,15.698-37.898c0-14.321-5.576-27.776-15.698-37.898L95.274,2.46c-2.002-2.002-5.238-2.002-7.24,0
			L1.501,88.988c-2.002,2.002-2.002,5.238,0,7.24l77.297,77.302c10.45,10.45,24.172,15.672,37.898,15.672
			c12.206,0,24.402-4.157,34.299-12.421l27.863,30.664l-29.645,27.213l-4.342-4.342c-0.963-0.963-2.263-1.5-3.62-1.5
			s-2.662,0.538-3.62,1.5L12.627,355.33c-6.083,6.083-9.436,14.172-9.436,22.774c0,8.602,3.348,16.691,9.436,22.774
			c6.277,6.282,14.525,9.416,22.774,9.416c8.248,0,16.497-3.139,22.774-9.416l125.01-125.01c2.002-2.002,2.002-5.238,0-7.24
			l-4.342-4.342l25.073-27.31l25.764,28.063l-3.589,3.589c-2.002,2.002-2.002,5.238,0,7.24l125.01,125.01
			c6.282,6.277,14.525,9.416,22.774,9.416c8.248,0,16.497-3.139,22.774-9.416c12.554-12.559,12.554-32.993,0-45.548L271.638,230.32z
			 M400.165,41.817c6.2,35.123-20.157,92.989-42.931,115.763c-21.053,21.053-52.05,26.219-78.003,15.534
			c18.888-1.454,41.405-12.682,60.969-32.246C360.726,120.343,393.668,73.111,400.165,41.817z M389.014,24.491
			c12.052,12.052-24.187,77.271-56.054,109.138c-13.583,13.583-29.271,23.332-44.17,27.443c-13.891,3.835-25.221,2.253-31.918-4.444
			c-14.387-14.392-3.85-49.234,23.004-76.088c14.735-14.735,39.547-32.568,61.742-44.385c19.21-10.225,32.23-13.824,39.915-13.824
			C385.225,22.336,387.688,23.165,389.014,24.491z M255.924,56.271c14.828-14.828,42.557-30.126,68.997-38.067
			c12.954-3.891,24.776-5.821,34.995-5.821c4.152,0,8.003,0.358,11.592,0.993c-31.293,6.579-78.382,39.439-98.872,59.924
			c-19.507,19.502-30.802,41.969-32.317,60.82C229.72,108.198,234.917,77.278,255.924,56.271z M147.355,166.29
			c-16.906,16.901-44.416,16.906-61.317,0L12.361,92.613l79.293-79.293l73.677,73.677c8.192,8.192,12.698,19.077,12.698,30.659
			s-4.511,22.467-12.698,30.659L147.355,166.29z M158.409,169.715l6.175-6.175l30.889,28.651l-9.073,8.33L158.409,169.715z
			 M50.935,393.638c-8.566,8.566-22.508,8.561-31.068,0c-4.152-4.152-6.436-9.667-6.436-15.534s2.284-11.387,6.436-15.534
			l101.586-101.586l31.068,31.068L50.935,393.638z M159.761,284.813l-31.068-31.068l12.564-12.564l31.068,31.068L159.761,284.813z
			 M200.444,225.615c0,0-0.005,0-0.005,0.005c-0.005,0.005-0.005,0.01-0.01,0.015l-28.836,31.406l-15.13-15.13l88.412-81.167
			l1.306,1.306c0.84,0.922,1.613,1.884,2.504,2.77c0.891,0.891,1.853,1.664,2.775,2.509l1.301,1.3l-33.674,36.68
			c-0.026,0.026-0.056,0.031-0.082,0.056c-0.026,0.026-0.031,0.061-0.051,0.087L200.444,225.615z M210.868,229.409l12.237-13.327
			l28.954,26.583l-15.13,15.13L210.868,229.409z M236.95,272.248l31.068-31.068l12.462,12.462l-31.068,31.068L236.95,272.248z
			 M389.408,393.638c-8.571,8.566-22.508,8.561-31.068,0L256.652,291.95l31.068-31.068L389.408,362.57
			C397.974,371.136,397.974,385.077,389.408,393.638z" fill="#000000" data-original="#000000" class=""></path>
	</g>
</g>
<g>
	<g>
		<path d="M143.402,103.734L89.765,50.091c-2.002-2.002-5.238-2.002-7.24,0c-2.002,2.002-2.002,5.238,0,7.24l53.637,53.642
			c0.998,0.998,2.309,1.5,3.62,1.5s2.621-0.502,3.62-1.5C145.404,108.971,145.404,105.735,143.402,103.734z" fill="#000000" data-original="#000000" class=""></path>
	</g>
</g>
<g>
	<g>
		<path d="M124.653,122.483L71.016,68.841c-2.002-2.002-5.238-2.002-7.24,0c-2.002,2.002-2.002,5.238,0,7.24l53.637,53.642
			c0.998,0.998,2.309,1.5,3.62,1.5c1.311,0,2.621-0.502,3.62-1.5C126.655,127.721,126.655,124.485,124.653,122.483z" fill="#000000" data-original="#000000" class=""></path>
	</g>
</g>
<g>
	<g>
		<path d="M105.903,141.232L52.266,87.59c-2.002-2.002-5.238-2.002-7.24,0c-2.002,2.002-2.002,5.238,0,7.24l53.637,53.642
			c1.004,0.998,2.309,1.5,3.62,1.5s2.621-0.502,3.62-1.5C107.905,146.47,107.905,143.234,105.903,141.232z" fill="#000000" data-original="#000000" class=""></path>
	</g>
</g>
<g>
</g>
<g>
</g>
<g>
</g>
<g>
</g>
<g>
</g>
<g>
</g>
<g>
</g>
<g>
</g>
<g>
</g>
<g>
</g>
<g>
</g>
<g>
</g>
<g>
</g>
<g>
</g>
<g>
</g>
</g></svg>