<svg clip-rule="evenodd" fill-rule="evenodd" height="512" image-rendering="optimizeQuality" shape-rendering="geometricPrecision" text-rendering="geometricPrecision" viewBox="0 0 512 512" width="512" xmlns="http://www.w3.org/2000/svg"><g id="Layer_x0020_1"><g id="_193116784"><g id="_193116376"><path id="_184091056" d="m452.682 334.324h-393.364c-8.31971 0-15.0886-6.7701-15.0886-15.0898v-233.563c0-8.32089 6.76892-15.0898 15.0886-15.0898l393.364-.00118111c8.31971 0 15.0898 6.7701 15.0898 15.0922v233.561c0 8.32089-6.76892 15.0898-15.0898 15.0898zm0-253.744-393.364.00236221c-2.80631 0-5.08939 2.28308-5.08939 5.08939v233.563c0 2.80631 2.28426 5.09057 5.08939 5.09057h393.364c2.80631 0 5.08939-2.28426 5.08939-5.09057v-233.563c0-2.80749-2.28308-5.09175-5.08939-5.09175z"/></g><g id="_193116736"><path id="_184090912" d="m496.448 441.419h-480.897c-4.75159 0-8.95633-2.77324-11.8394-7.81184-4.23426-7.39963-5.64214-20.5264.0897641-30.2777l45.9037-78.0569c1.39843-2.37993 4.4634-3.17363 6.84451-1.77402 2.37993 1.39961 3.17481 4.46458 1.77402 6.84569l-45.9025 78.0546c-3.5197 5.98703-2.85828 15.3024-.0295276 20.243.477167.835042 1.74213 2.77914 3.15946 2.77914h480.897c1.41733 0 2.68229-1.9441 3.16064-2.78032 2.82639-4.94057 3.48781-14.2536-.0318899-20.243l-45.8966-78.0593c-1.39961-2.37993-.603545-5.44372 1.7752-6.84451 2.38111-1.39725 5.44608-.603545 6.84569 1.77638l45.8966 78.0593c5.73073 9.75121 4.32403 22.878.0897641 30.2777-2.8819 5.03742-7.08782 7.81184-11.8394 7.81184z"/></g><g id="_193116808"><path id="_184090768" d="m314.593 441.419h-119.124c-2.76143 0-4.99962-2.23701-4.99962-4.99962v-29.2773c0-2.76261 2.2382-4.99962 4.99962-4.99962l119.124-.00118111c2.76261 0 4.99962 2.2382 4.99962 5.0008v29.2773c0 2.76143-2.2382 4.99962-4.99962 4.99962zm-114.124-9.99924h109.125v-19.278h-109.125z"/></g><g id="_188841808"><path id="_184090624" d="m416.365 364.428h-324.925c-2.76261 0-4.99962-2.2382-4.99962-4.99962 0-2.76261 2.23701-4.99962 4.99962-4.99962h324.925c2.76143 0 4.99962 2.23701 4.99962 4.99962 0 2.76143-2.2382 4.99962-4.99962 4.99962z"/></g><g id="_193211464"><path id="_184090480" d="m416.365 387.872h-324.925c-2.76261 0-4.99962-2.23701-4.99962-4.99962 0-2.76143 2.23701-4.99962 4.99962-4.99962h324.925c2.76143 0 4.99962 2.23701 4.99962 4.99962 0 2.76143-2.2382 4.99962-4.99962 4.99962z"/></g><g id="_193211824"><path id="_184090336" d="m462.772 120.944h-413.543c-2.76143 0-4.99962-2.2382-4.99962-4.99962 0-2.76261 2.2382-4.99962 4.99962-4.99962h413.543c2.76261 0 4.99962 2.23701 4.99962 4.99962 0 2.76143-2.23701 4.99962-4.99962 4.99962z"/></g><g id="_193730464"><path id="_184090192" d="m462.772 293.961h-413.543c-2.76143 0-4.99962-2.2382-4.99962-4.99962 0-2.76261 2.2382-4.99962 4.99962-4.99962h413.543c2.76261 0 4.99962 2.23701 4.99962 4.99962 0 2.76143-2.23701 4.99962-4.99962 4.99962z"/></g><g id="_193730536"><path id="_184090048" d="m272.421 100.529h-32.8407c-2.76261 0-4.99962-2.23701-4.99962-4.99962 0-2.76143 2.23701-4.99962 4.99962-4.99962h32.8407c2.76143 0 4.99962 2.23701 4.99962 4.99962 0 2.76143-2.2382 4.99962-4.99962 4.99962z"/></g></g></g></svg>