<svg enable-background="new 0 0 512 512" height="512" viewBox="0 0 512 512" width="512" xmlns="http://www.w3.org/2000/svg"><g id="_x32_0_Laundry"><g><path d="m476.256 51.623c0-27.901-22.701-50.599-50.599-50.599-79.988 0-259.635 0-339.315 0-27.898 0-50.599 22.698-50.599 50.599v379.041c0 27.388 22.435 50.602 50.599 50.602h8.627v14.027c0 8.648 7.034 15.684 15.682 15.684h32.323c8.648 0 15.687-7.037 15.687-15.684v-14.027h194.677v14.027c0 8.648 7.034 15.684 15.682 15.684h32.328c8.648 0 15.682-7.037 15.682-15.684v-14.027h8.627c28.257 0 50.599-23.325 50.599-50.602 0-81.982 0-295.096 0-379.041zm-429.888 376.509v-315.725h419.265v315.725zm419.264-376.509v50.153h-281.987v-90.128h242.013c22.041 0 39.974 17.933 39.974 39.975zm-419.264 0c0-22.042 17.933-39.975 39.975-39.975h86.678v90.128h-126.653zm101.67 443.669c0 2.791-2.272 5.06-5.063 5.06h-32.323c-2.791 0-5.058-2.27-5.058-5.06v-14.027h42.444zm258.369 0c0 2.791-2.267 5.06-5.058 5.06h-32.329c-2.791 0-5.058-2.27-5.058-5.06v-14.027h42.444v14.027zm-320.064-24.651c-18.626 0-35.256-13.215-39.098-31.885h417.505c-3.825 18.612-20.407 31.885-39.093 31.885-63.523 0-299.082-.001-339.314 0z"/><path d="m140.028 51.4h-60.668c-2.936 0-5.312 2.378-5.312 5.312s2.376 5.312 5.312 5.312h60.668c2.936 0 5.312-2.378 5.312-5.312s-2.376-5.312-5.312-5.312z"/><path d="m256.036 151.062c-67.08 0-121.652 54.541-121.652 121.58s54.573 121.577 121.652 121.577c67.038 0 121.58-54.539 121.58-121.577s-54.542-121.58-121.58-121.58zm0 232.533c-61.223 0-111.028-49.774-111.028-110.953 0-61.181 49.805-110.956 111.028-110.956 61.181 0 110.956 49.774 110.956 110.956 0 61.178-49.774 110.953-110.956 110.953z"/><path d="m247.959 189.623c-38.496 3.696-69.912 34.248-74.695 72.646-.363 2.91 1.701 5.564 4.612 5.927 2.887.369 5.568-1.688 5.929-4.614 4.176-33.504 31.582-60.16 65.171-63.381 2.921-.28 5.058-2.876 4.778-5.797-.28-2.916-2.864-5.058-5.795-4.781z"/><path d="m408.45 80.232c12.969 0 23.52-10.551 23.52-23.52s-10.551-23.52-23.52-23.52-23.52 10.551-23.52 23.52 10.552 23.52 23.52 23.52zm0-36.417c7.112 0 12.896 5.784 12.896 12.896s-5.784 12.896-12.896 12.896c-7.231 0-12.896-5.665-12.896-12.896 0-7.112 5.784-12.896 12.896-12.896z"/><path d="m334.15 80.232c12.969 0 23.52-10.551 23.52-23.52s-10.551-23.52-23.52-23.52-23.52 10.551-23.52 23.52 10.551 23.52 23.52 23.52zm0-36.417c7.112 0 12.896 5.784 12.896 12.896s-5.784 12.896-12.896 12.896c-7.231 0-12.896-5.665-12.896-12.896 0-7.112 5.784-12.896 12.896-12.896z"/><path d="m259.849 80.232c12.969 0 23.52-10.551 23.52-23.52s-10.551-23.52-23.52-23.52-23.52 10.551-23.52 23.52 10.551 23.52 23.52 23.52zm0-36.417c7.112 0 12.896 5.784 12.896 12.896s-5.784 12.896-12.896 12.896c-7.231 0-12.896-5.665-12.896-12.896 0-7.112 5.784-12.896 12.896-12.896z"/></g></g></svg>