<?xml version="1.0"?>
<svg xmlns="http://www.w3.org/2000/svg" id="Outline" viewBox="0 0 512 512" width="512" height="512"><path d="M152.041,457.816A39.934,39.934,0,0,0,192,496H304a39.934,39.934,0,0,0,39.959-38.184L356.29,186.543A56,56,0,0,0,300.347,128H296V88a8,8,0,0,0-8-8H272V64h56V80a8,8,0,0,0,8,8h32a8,8,0,0,0,8-8V56a40.045,40.045,0,0,0-40-40H224a40.045,40.045,0,0,0-40,40,8,8,0,0,0,8,8h32V80H208a8,8,0,0,0-8,8v40h-4.347a56,56,0,0,0-55.943,58.543ZM304,480H192a23.96,23.96,0,0,1-23.975-22.91l-.413-9.09H328.388l-.413,9.09A23.96,23.96,0,0,1,304,480ZM224,32H336a24.028,24.028,0,0,1,24,24V72H344V56a8,8,0,0,0-8-8H201.371A24.042,24.042,0,0,1,224,32Zm16,32h16V80H240ZM216,96h64v32H216Zm-49.267,60.365A39.656,39.656,0,0,1,195.653,144H300.347a40,40,0,0,1,39.959,41.816L329.115,432H166.885L155.694,185.816A39.653,39.653,0,0,1,166.733,156.365Z"/><path d="M248,304a56,56,0,1,0-56-56A56.063,56.063,0,0,0,248,304Zm0-96a40,40,0,1,1-40,40A40.045,40.045,0,0,1,248,208Z"/><path d="M280,320H216a8,8,0,0,0,0,16h64a8,8,0,0,0,0-16Z"/></svg>
