<svg height="489pt" viewBox="-15 0 489 489.61193" width="489pt" xmlns="http://www.w3.org/2000/svg"><path d="m427.984375 7.261719c14.402344.128906 25.980469 11.371093 25.863281 25.121093l-.550781 85.578126c-.109375 13.75-11.882813 24.800781-26.269531 24.679687l-66.871094-.390625-71.558594 56.523438 3.5-57.089844-15.730468-.300782c-14.390626-.121093-25.972657-11.371093-25.851563-25.121093l.550781-85.578125c.109375-13.75 11.871094-24.800782 26.269532-24.683594l131.101562 1.101562zm0 0" fill="#00efd1"/><path d="m256.144531 427.070312v56.152344h-249.378906v-56.152344c-.003906-32.691406 26.496094-59.199218 59.191406-59.199218h30.039063v1.121094c0 19.464843 15.78125 35.246093 35.246094 35.246093 19.464843 0 35.242187-15.78125 35.242187-35.246093v-1.121094h30.472656c32.691407 0 59.191407 26.507812 59.1875 59.199218zm0 0" fill="#00acea"/><path d="m227.027344 205.0625c9.75 24.160156 8.589844 50.4375-1.402344 74.300781-8.359375 19.957031-21.769531 37.589844-37 52.796875-6.859375 6.996094-14.261719 13.433594-22.140625 19.261719v-13.761719l-.007813-.007812c21.996094-12.925782 35.496094-36.539063 35.480469-62.050782v-29.019531l.097657-6.839843c.355468-16.386719-7.625-31.832032-21.1875-41.03125-5.371094-3.632813-11.496094-6.003907-17.910157-6.9375-35.0625 64.160156-98.070312 70.328124-100.53125 70.539062-.050781.007812-.097656.011719-.148437.007812-.464844 0-.910156.183594-1.238282.511719-.332031.328125-.515624.777344-.511718 1.238281v12.421876c-.011719 25.3125 13.519531 48.699218 35.46875 61.308593v10.339844c-39.660156-20.296875-64.929688-63.390625-66.75-107.589844-.761719-16.996093 2.78125-33.90625 10.300781-49.167969 13.140625-26.371093 37.789063-45.332031 65.898437-53.449218 18.5-5.351563 36.710938-3.421875 52.039063 4.378906 14.601563 7.429688 26.589844 20.179688 33.742187 37.050781l.488282 1.488281c17.230468-4.089843 29.5625 9.960938 35.3125 24.210938zm0 0" fill="#4b5d63"/><path d="m95.996094 337.800781c-21.949219-12.609375-35.480469-35.996093-35.46875-61.308593v-12.421876c-.003906-.460937.179687-.910156.511718-1.238281.328126-.328125.773438-.511719 1.238282-.511719.050781.003907.097656 0 .148437-.007812 2.460938-.210938 65.46875-6.378906 100.53125-70.539062 6.414063.933593 12.539063 3.304687 17.910157 6.9375 13.5625 9.199218 21.542968 24.644531 21.1875 41.03125l-.097657 6.839843v29.019531c.015625 25.511719-13.484375 49.125-35.480469 62.050782-10.527343 6.171875-22.496093 9.46875-34.699218 9.550781-12.554688.117187-24.910156-3.128906-35.78125-9.402344zm0 0" fill="#f7caa5"/><path d="m95.996094 348.140625v-10.339844c10.871094 6.273438 23.226562 9.519531 35.78125 9.402344 12.203125-.082031 24.171875-3.378906 34.699218-9.550781l.007813.007812v31.332032c0 19.464843-15.777344 35.246093-35.242187 35.246093-19.464844 0-35.246094-15.78125-35.246094-35.246093zm0 0" fill="#edb288"/><g fill="#083863"><path d="m276.253906 147.382812 9.46875.179688-3.117187 50.84375c-.144531 2.359375 1.113281 4.585938 3.210937 5.683594 2.09375 1.097656 4.640625.859375 6.496094-.609375l69.910156-55.214844 64.753906.375c8.398438.121094 16.515626-3.019531 22.644532-8.765625 6.105468-5.644531 9.605468-13.558594 9.675781-21.875l.546875-85.566406c.148438-17.027344-14.117188-31.011719-31.808594-31.171875l-150.648437-1.261719c-8.359375-.0898438-16.433594 3.050781-22.53125 8.769531-6.09375 5.636719-9.554688 13.5625-9.550781 21.863281v.011719l-.667969 85.566407c-.09375 8.300781 3.253906 16.273437 9.242187 22.027343 5.992188 5.828125 14.011719 9.105469 22.375 9.144531zm-19.1875-116.652343c.054688-5.03125 2.183594-9.8125 5.882813-13.21875 3.882812-3.628907 9.023437-5.601563 14.335937-5.511719l150.648438 1.261719c11.070312.097656 20 8.652343 19.914062 19.082031l-.550781 85.570312c-.054687 5.027344-2.1875 9.808594-5.890625 13.214844-3.886719 3.628906-9.03125 5.601563-14.34375 5.511719l-66.871094-.390625c-1.359375.015625-2.675781.46875-3.753906 1.292969l-61.03125 48.199219 2.679688-43.699219c.097656-1.632813-.472657-3.234375-1.582032-4.4375-1.109375-1.199219-2.660156-1.898438-4.292968-1.929688l-15.796876-.300781c-5.308593-.003906-10.410156-2.066406-14.234374-5.75-3.644532-3.472656-5.695313-8.296875-5.664063-13.328125zm0 0"/><path d="m302.574219 60.613281h99.210937c3.316406 0 6-2.6875 6-6 0-3.316406-2.683594-6-6-6h-99.210937c-3.3125 0-6 2.683594-6 6 0 3.3125 2.6875 6 6 6zm0 0"/><path d="m302.574219 95.613281h60.023437c3.3125 0 6-2.6875 6-6 0-3.316406-2.6875-6-6-6h-60.023437c-3.3125 0-6 2.683594-6 6 0 3.3125 2.6875 6 6 6zm0 0"/><path d="m6.765625 489.613281h249.378906c3.417969-.171875 6.117188-2.96875 6.160157-6.390625v-56.152344c-.089844-36.070312-29.277344-65.304687-65.347657-65.457031h-24.652343v-7.175781c7-4.941406 13.300781-10.863281 20.46875-18.03125 17.539062-17.511719 30.464843-35.925781 38.339843-54.726562 10.921875-26.082032 11.453125-54.089844 1.453125-78.863282-3.554687-8.816406-8.929687-16.421875-15.144531-21.414062-6.105469-5.136719-13.960937-7.714844-21.925781-7.191406-7.6875-16.539063-19.835938-29.378907-35.292969-37.246094-17.058594-8.683594-37.097656-10.386719-56.421875-4.800782-30.761719 8.886719-56.128906 29.492188-69.601562 56.535157-7.921876 16.183593-11.625 34.105469-10.769532 52.101562 1.90625 46.394531 27.894532 89.511719 66.894532 110.933594v9.878906h-24.347657c-35.949219 0-65.652343 29.507813-65.652343 65.457031v56.152344c.183593 3.476563 2.984374 6.242188 6.460937 6.390625zm189.539063-243.03125v29.019531c-.078126 23.402344-12.503907 45.023438-32.6875 56.875-19.953126 11.589844-44.578126 11.640626-64.578126.128907h-.136718c-20.085938-11.566407-32.5-32.9375-32.597656-56.113281v-8.648438c15-2.152344 67.171874-13.695312 99.632812-69.347656 4.109375 1.09375 8.011719 2.851562 11.550781 5.210937 11.953125 8.011719 19.007813 21.558594 18.71875 35.945313zm-94 121.289063v-20.445313c9.214843 3.835938 19.101562 5.800781 29.082031 5.777344h.425781c9.792969-.074219 19.472656-2.070313 28.5-5.875v21.664063c.019531 16.125-13.035156 29.21875-29.160156 29.238281-7.699219.023437-15.082032-3.0625-20.476563-8.558594-5.445312-5.496094-8.460937-12.945313-8.371093-20.679687zm-67.0625-127.566406c-.71875-15.984376 2.609374-31.890626 9.671874-46.246094 11.984376-24.050782 34.65625-42.40625 62.203126-50.363282 16.386718-4.738281 33.3125-3.332031 47.652343 3.964844 13.699219 6.972656 24.359375 18.664063 30.839844 33.816406l.410156 1.25c.972657 2.960938 4.050781 4.683594 7.085938 3.964844 17.40625-4.136718 26.675781 16.449219 28.359375 20.617188 8.808594 21.824218 8.320312 46.589844-1.371094 69.734375-5.257812 12.363281-12.222656 23.925781-20.6875 34.359375 5.777344-11.050782 8.828125-23.328125 8.898438-35.800782v-28.929687l-.074219-6.84375c.40625-18.449219-8.625-35.835937-23.957031-46.117187-6.144532-4.125-13.132813-6.820313-20.457032-7.886719-2.472656-.339844-4.898437.878906-6.097656 3.066406-33.296875 60.921875-92.339844 67.121094-95.824219 67.4375-4.1875.144531-7.527343 3.550781-7.589843 7.742187v12.421876c.058593 14.742187 4.355468 29.160156 12.378906 41.527343-19.144532-21.496093-30.253906-48.957031-31.441406-77.714843zm-22.9375 186.765624c0-29.332031 24.324218-53.457031 53.652343-53.457031h24.324219c1.105469 9.222657 5.257812 17.8125 11.792969 24.410157 11.203125 11.136718 27.773437 14.90625 42.691406 9.714843 14.917969-5.195312 25.566406-18.441406 27.433594-34.125h24.757812c29.445313.144531 53.265625 24.011719 53.347657 53.457031v50.542969h-238zm0 0"/></g></svg>