<svg id="Capa_1" enable-background="new 0 0 512 512" height="512" viewBox="0 0 512 512" width="512" xmlns="http://www.w3.org/2000/svg"><g><g><g><path d="m256 22c-135.31 0-245 109.69-245 245 0 35.373 7.509 68.989 21 99.358v-37.369c0-27.019 21.981-49 49-49h31.068v6.717c0 12.407 10.094 22.5 22.5 22.5s22.5-10.093 22.5-22.5v-6.717h31.069c9.761 0 19.202 2.881 27.304 8.333l1.559 1.048v-22.37h40c1.103 0 2 .897 2 2v76.879l28.712-29.142c.972-.971 2.115-1.176 2.902-1.176 2.109 0 4.386 1.533 4.386 4.01v29.011h13.082c5.58 0 11.017 1.959 15.307 5.517l.278.23h28.877v9.536c0 12.545 10.206 22.752 22.752 22.752s22.753-10.207 22.753-22.752v-9.536h51.543c11.711 0 22.144 6.927 26.702 17.686.197.404.355.795.527 1.19 15.486-32.13 24.179-68.149 24.179-106.205 0-135.31-109.69-245-245-245z" fill="#ffe177"/></g><path d="m272 487.695h-122.51c32.206 15.572 68.338 24.305 106.51 24.305 5.377 0 10.709-.193 16-.534z" fill="#ffe177"/></g><g><g><path d="m380.304 0h-222.437c-13.181 0-23.867 10.686-23.867 23.867v75.628h6.121c26.388 0 49.179 15.645 59.621 38.139h26.37v29.974c0 2.552 3.085 3.829 4.889 2.025l31.999-31.999h117.304c13.181 0 23.866-10.686 23.866-23.867v-89.9c0-13.181-10.685-23.867-23.866-23.867z" fill="#00f2a6"/><g><path d="m140.121 99.495c14.908 0 28.665 4.999 39.703 13.397v-89.025c0-13.181 10.686-23.867 23.867-23.867h-45.824c-13.181 0-23.867 10.686-23.867 23.867v75.628z" fill="#05e39c"/></g><g><g><path d="m362.638 44.033h-46.069c-2.761 0-5-2.239-5-5v-5c0-2.761 2.239-5 5-5h46.069c2.761 0 5 2.239 5 5v5c0 2.761-2.239 5-5 5z" fill="#fff"/></g><g><path d="m289.384 44.033h-113.852c-2.761 0-5-2.239-5-5v-5c0-2.761 2.239-5 5-5h113.852c2.761 0 5 2.239 5 5v5c0 2.761-2.239 5-5 5z" fill="#fff"/></g><g><path d="m362.638 76.317h-127.217c-2.761 0-5-2.239-5-5v-5c0-2.761 2.239-5 5-5h127.217c2.761 0 5 2.239 5 5v5c0 2.762-2.239 5-5 5z" fill="#fff"/></g><g><path d="m208.237 76.317h-32.705c-2.761 0-5-2.239-5-5v-5c0-2.761 2.239-5 5-5h32.705c2.761 0 5 2.239 5 5v5c0 2.762-2.238 5-5 5z" fill="#fff"/></g><path d="m281.747 93.602h-106.215c-2.761 0-5 2.239-5 5v5c0 2.761 2.239 5 5 5h106.215c2.761 0 5-2.239 5-5v-5c0-2.762-2.238-5-5-5z" fill="#fff"/></g></g></g><g><path d="m449.592 353.329h-52.543v10.536c0 11.994-9.759 21.752-21.753 21.752s-21.752-9.758-21.752-21.752v-10.536h-31.15c5.876 4.379 9.688 11.379 9.688 19.253v91.113c0 13.234-10.767 24-24 24h-37.082v23.835c91.289-5.515 169.086-61.007 206.389-139.487-4.46-10.974-15.222-18.714-27.797-18.714z" fill="#05e39c"/><g><path d="m271 488.695v22.835c11.782-.712 23.336-2.263 34.611-4.581v-18.253h-34.611z" fill="#0ed290"/></g><g><g><path d="m315.393 268.058h5.723v-7.206c0-9.521 7.746-17.267 17.267-17.267h73.829c9.521 0 17.267 7.746 17.267 17.267v7.205h5.723c4.629 0 8.83 1.835 11.942 4.803v-29.536c0-36.63-29.695-66.325-66.325-66.325h-11.042c-36.63 0-66.325 29.695-66.325 66.325v29.536c3.11-2.967 7.311-4.802 11.941-4.802z" fill="#685e68"/></g><g><path d="m337.309 243.325c0-32.738 23.726-59.917 54.917-65.327-3.708-.643-7.516-.998-11.408-.998h-11.042c-36.63 0-66.325 29.695-66.325 66.325v29.536c3.112-2.968 7.313-4.804 11.942-4.804h5.723v-7.206c0-9.159 7.173-16.654 16.193-17.212z" fill="#554e56"/></g><g><path d="m390.835 347.672h-31.077c-2.466 0-4.875-.242-7.214-.685v16.878c0 12.566 10.187 22.752 22.752 22.752s22.752-10.186 22.752-22.752v-16.878c-2.338.444-4.747.685-7.213.685z" fill="#ffb09e"/></g><path d="m370 363.865v-16.192h-10.242c-2.466 0-4.875-.242-7.214-.685v16.878c0 12.566 10.187 22.752 22.752 22.752 3.089 0 6.029-.626 8.714-1.743-8.226-3.428-14.01-11.543-14.01-21.01z" fill="#f89580"/><g><g><path d="m321.115 309.03v-41.972h-5.723c-10.123 0-18.329 8.206-18.329 18.328v7.339c0 10.123 8.206 18.328 18.329 18.328h5.776c-.034-.67-.053-1.344-.053-2.023z" fill="#f89580"/></g><g><path d="m435.2 267.058h-5.722v41.972c0 .679-.019 1.354-.053 2.024h5.775c10.123 0 18.329-8.206 18.329-18.328v-7.339c-.001-10.123-8.207-18.329-18.329-18.329z" fill="#ffb09e"/></g></g><g><path d="m412.211 242.586h-73.829c-10.088 0-18.267 8.178-18.267 18.267v48.178c0 21.894 17.749 39.643 39.643 39.643h31.077c21.894 0 39.643-17.749 39.643-39.643v-48.178c0-10.089-8.179-18.267-18.267-18.267z" fill="#ffcebf"/></g><path d="m337 309.03v-48.178c0-10.088 8.178-18.267 18.267-18.267h-16.885c-10.088 0-18.267 8.178-18.267 18.267v48.178c0 21.894 17.749 39.643 39.643 39.643h16.885c-21.894 0-39.643-17.749-39.643-39.643z" fill="#ffb09e"/><g><g><g><path d="m346.587 287.4c-4.143 0-7.5-3.358-7.5-7.5v-8.052c0-4.142 3.357-7.5 7.5-7.5s7.5 3.358 7.5 7.5v8.052c0 4.142-3.358 7.5-7.5 7.5z" fill="#ec806b"/></g><g><path d="m404.005 287.4c-4.143 0-7.5-3.358-7.5-7.5v-8.052c0-4.142 3.357-7.5 7.5-7.5s7.5 3.358 7.5 7.5v8.052c0 4.142-3.358 7.5-7.5 7.5z" fill="#ec806b"/></g></g><g><path d="m375.289 305.545c-1.333 0-2.683-.355-3.903-1.101l-10.378-6.341c-1.787-1.092-3.036-2.88-3.445-4.934-.409-2.053.059-4.184 1.29-5.877l10.378-14.268c2.438-3.35 7.129-4.09 10.478-1.654 3.35 2.437 4.09 7.127 1.653 10.477l-5.597 7.694 3.441 2.103c3.535 2.16 4.649 6.775 2.49 10.31-1.414 2.314-3.881 3.591-6.407 3.591z" fill="#ec806b"/></g></g><g><path d="m355.444 311.377c-3.296 0-5.801 3.082-4.996 6.278 2.8 11.116 12.863 19.345 24.848 19.345s22.049-8.229 24.848-19.345c.805-3.196-1.7-6.278-4.996-6.278z" fill="#fe7d43"/></g><path d="m367.152 317.655c-.805-3.196 1.7-6.278 4.996-6.278h-16.704c-3.296 0-5.801 3.082-4.996 6.278 2.8 11.116 12.863 19.345 24.848 19.345 2.926 0 5.733-.497 8.352-1.4-8.11-2.796-14.38-9.542-16.496-17.945z" fill="#fd6930"/></g></g><g><g><path d="m140.121 98.495h-11.104c-36.84 0-66.705 29.865-66.705 66.705v118.501c5.763-2.387 12.073-3.712 18.688-3.712h32.068v-13.184c6.831 2.888 14.057 4.351 21.5 4.351 7.444 0 14.67-1.463 21.5-4.351v13.184h32.069c6.616 0 12.926 1.325 18.688 3.712v-118.501c.001-36.84-29.864-66.705-66.704-66.705z" fill="#bb5d4c"/><g fill="#a44f3e"><path d="m74.322 189.069h4.767c.183-5.507 4.083-10.213 9.504-11.374l7.407-1.585v-10.91c0-32.989 23.954-60.367 55.413-65.734-3.672-.626-7.441-.971-11.292-.971h-11.104c-36.84 0-66.705 29.865-66.705 66.705v28.337c3.227-2.778 7.417-4.468 12.01-4.468z"/><path d="m81.957 233.317h-7.635c-4.593 0-8.783-1.69-12.01-4.469v54.853c5.763-2.387 12.073-3.712 18.688-3.712h15v-24.446c-6.318-6.11-11.184-13.705-14.043-22.226z"/></g><path d="m156.068 278.989v7.717c0 11.855-9.645 21.5-21.5 21.5s-21.5-9.645-21.5-21.5v-7.717h-32.068c-27.614 0-50 22.386-50 50v35.083c7.048 16.313 15.819 31.705 26.081 45.953v-37.443c0-13.233 10.767-24 24-24h135.919v-60.409c-8.155-5.777-18.108-9.184-28.862-9.184z" fill="#01d0fb"/><g><path d="m134.568 270.156c-8.021 0-15.635-1.756-22.5-4.881v21.431c0 12.427 10.074 22.5 22.5 22.5s22.5-10.073 22.5-22.5v-21.431c-6.864 3.125-14.478 4.881-22.5 4.881z" fill="#ffb09e"/></g><g><path d="m129 286.706v-16.843c-5.98-.614-11.677-2.196-16.931-4.588v21.431c0 12.427 10.074 22.5 22.5 22.5 2.995 0 5.852-.59 8.466-1.653-8.23-3.345-14.035-11.416-14.035-20.847z" fill="#f89580"/></g><g><g><path d="m80.071 215.659v-26.188c0-.135.013-.268.018-.402h-5.767c-10.18 0-18.433 8.253-18.433 18.433v7.381c0 10.181 8.253 18.434 18.433 18.434h8.702c-1.904-5.542-2.953-11.478-2.953-17.658z" fill="#f89580"/></g><g><path d="m194.816 189.069h-5.749v26.59c0 6.18-1.049 12.116-2.953 17.658h8.702c10.18 0 18.433-8.253 18.433-18.434v-7.381c0-10.18-8.253-18.433-18.433-18.433z" fill="#ffb09e"/></g></g><g><path d="m170.494 160.161-81.901 17.534c-5.554 1.189-9.522 6.097-9.522 11.776v26.187c0 30.65 24.847 55.497 55.497 55.497 30.65 0 55.497-24.847 55.497-55.497v-35.925c.001-10.809-8.762-19.572-19.571-19.572z" fill="#ffcebf"/></g><g><path d="m95 215.659v-39.335l-6.407 1.372c-5.554 1.189-9.522 6.096-9.522 11.776v26.188c0 30.65 24.847 55.498 55.497 55.498 2.695 0 5.34-.209 7.931-.582-26.858-3.879-47.499-26.984-47.499-54.917z" fill="#ffb09e"/></g><g><g><g><path d="m105.695 209.485c-4.143 0-7.5-3.358-7.5-7.5v-8.099c0-4.142 3.357-7.5 7.5-7.5s7.5 3.358 7.5 7.5v8.099c0 4.142-3.357 7.5-7.5 7.5z" fill="#ec806b"/></g><g><path d="m163.442 209.485c-4.143 0-7.5-3.358-7.5-7.5v-8.099c0-4.142 3.357-7.5 7.5-7.5s7.5 3.358 7.5 7.5v8.099c0 4.142-3.357 7.5-7.5 7.5z" fill="#ec806b"/></g></g><g><path d="m134.562 227.734c-1.333 0-2.683-.355-3.903-1.101l-10.438-6.377c-1.787-1.092-3.036-2.88-3.445-4.934-.409-2.053.059-4.185 1.29-5.877l10.438-14.349c2.437-3.351 7.129-4.09 10.478-1.653 3.35 2.437 4.09 7.127 1.653 10.477l-5.656 7.776 3.501 2.139c3.535 2.16 4.649 6.776 2.489 10.311-1.413 2.311-3.88 3.588-6.407 3.588z" fill="#ec806b"/></g></g><g><path d="m115.511 232.569c-3.164 0-5.569 2.959-4.796 6.027 2.688 10.671 12.349 18.571 23.854 18.571s21.167-7.9 23.854-18.571c.773-3.068-1.632-6.027-4.796-6.027z" fill="#fe7d43"/></g><g><path d="m128.661 238.596c-.773-3.068 1.632-6.027 4.796-6.027h-17.947c-3.164 0-5.569 2.959-4.796 6.027 2.688 10.671 12.349 18.571 23.854 18.571 3.17 0 6.191-.618 8.973-1.71-7.316-2.872-12.933-9.13-14.88-16.861z" fill="#fd6930"/></g></g><g><g><path d="m283.5 227.423c-3.314-3.314-8.686-3.314-12 0l-14.5 14.5h-24.734c-8.983 0-16.266 7.282-16.266 16.266v7.811l3.343 1h36.58l27.577-27.577c3.314-3.314 3.314-8.686 0-12z" fill="#ffcebf"/></g><g><path d="m233 258.188c0-8.983 7.282-16.266 16.266-16.266h-17c-8.983 0-16.266 7.282-16.266 16.266v7.812l3.343 1h17l-3.343-1z" fill="#ffb09e"/></g><path d="m256.337 348.582 3.663-3.718v-75.864c0-1.657-1.343-3-3-3h-41v82.582z" fill="#01c0fa"/><path d="m216 266h16v82.582h-16z" fill="#08a9f1"/></g></g><g><g><g><path d="m308.082 347.582h-12.082v-28.011c0-4.455-5.85-6.685-9-3.536l-31.082 31.546h-174.837c-13.807 0-25 11.193-25 25v91.113c0 13.807 11.193 25 25 25h227c13.807 0 25-11.193 25-25v-91.113c.001-13.806-11.192-24.999-24.999-24.999z" fill="#fd6930"/></g><g><path d="m107 463.695v-91.113c0-13.807 11.193-25 25-25h-50.919c-13.807 0-25 11.193-25 25v91.113c0 13.807 11.193 25 25 25h50.919c-13.807 0-25-11.193-25-25z" fill="#fd5426"/></g><g><g><path d="m290.625 392.538h-192.088c-2.761 0-5-2.239-5-5v-5c0-2.761 2.239-5 5-5h192.088c2.761 0 5 2.239 5 5v5c0 2.761-2.239 5-5 5z" fill="#fff"/></g><g><path d="m290.625 425.638h-70.544c-2.761 0-5-2.239-5-5v-5c0-2.761 2.239-5 5-5h70.544c2.761 0 5 2.239 5 5v5c0 2.762-2.239 5-5 5z" fill="#fff"/></g><g><path d="m192.081 425.638h-93.544c-2.761 0-5-2.239-5-5v-5c0-2.761 2.239-5 5-5h93.544c2.761 0 5 2.239 5 5v5c0 2.762-2.239 5-5 5z" fill="#fff"/></g><g><path d="m234.877 458.739h-136.34c-2.761 0-5-2.239-5-5v-5c0-2.761 2.239-5 5-5h136.34c2.761 0 5 2.239 5 5v5c0 2.761-2.239 5-5 5z" fill="#fff"/></g></g></g></g></g></svg>