<svg id="Capa_1" enable-background="new 0 0 512 512" height="512" viewBox="0 0 512 512" width="512" xmlns="http://www.w3.org/2000/svg"><g><path d="m471.877 60.245h-431.754c-22.124 0-40.123 17.999-40.123 40.122v271.103c0 22.124 17.999 40.122 40.123 40.122h.04v30.163c0 5.523 4.477 10 10 10h50.204c5.522 0 10-4.477 10-10v-30.163h291.266v30.163c0 5.523 4.478 10 10 10h50.204c5.522 0 10-4.477 10-10v-30.163h.04c22.124 0 40.123-17.999 40.123-40.122v-271.103c0-22.123-17.999-40.122-40.123-40.122zm-381.51 371.51h-30.204v-20.163h30.204zm361.47 0h-30.204v-20.163h30.204zm40.163-60.285c0 11.095-9.027 20.122-20.123 20.122h-431.754c-11.096 0-20.123-9.027-20.123-20.122v-271.103c0-11.095 9.027-20.122 20.123-20.122h431.754c11.096 0 20.123 9.027 20.123 20.122z"/><path d="m341.347 100.408h-291.184c-5.523 0-10 4.477-10 10v251.021c0 5.523 4.477 10 10 10h291.184c5.522 0 10-4.477 10-10v-251.021c0-5.523-4.478-10-10-10zm-10 210.858h-40.245v-150.695h40.245zm-271.184 40.163v-231.021h271.184v20.163h-50.245c-5.522 0-10 4.477-10 10v170.694c0 5.523 4.478 10 10 10h50.245v20.163h-271.184z"/><path d="m386.193 285.804c-19.549 19.56-19.546 51.377.009 70.933 19.605 19.603 51.335 19.607 70.942 0 19.558-19.559 19.558-51.383 0-70.942-19.53-19.53-51.246-19.684-70.951.009zm56.809 56.79c-11.785 11.787-30.867 11.789-42.657 0-9.282-9.282-11.231-23.157-5.861-34.376l20.119 20.119c3.907 3.905 10.236 3.904 14.143 0 3.905-3.905 3.905-10.237 0-14.143l-20.132-20.131c11.009-5.294 24.924-3.593 34.389 5.873 11.76 11.761 11.76 30.897-.001 42.658z"/><path d="m381.51 210.77c5.317 0 10-4.684 10-9.99 0-5.458-4.544-10-10-10-5.438 0-10 4.573-10 10 0 5.443 4.569 9.99 10 9.99z"/><path d="m428.644 193.797c-1.827-1.831-4.311-3.017-6.974-3.017-5.438 0-10 4.573-10 9.999 0 5.4 4.622 10 9.999 10.001 5.434 0 10-4.579 10.001-9.999 0-2.613-1.175-5.129-3.026-6.984z"/><path d="m461.84 190.78c-5.403 0-10 4.621-10 10 0 5.329 4.486 10 10 10 5.443 0 10-4.558 10-10 0-5.449-4.553-10-10-10z"/><path d="m381.51 250.94c5.399 0 10-4.616 10-10 0-5.447-4.556-10-10-10-5.448 0-10 4.553-10 9.999-.001 5.248 4.592 10.001 10 10.001z"/><path d="m421.67 230.94c-5.449 0-9.999 4.55-10 9.999 0 5.364 4.664 10.001 10 10.001 5.45 0 10-4.551 10-9.999 0-5.335-4.686-10.001-10-10.001z"/><path d="m461.84 230.94c-5.421 0-10 4.594-10 10 0 5.333 4.472 10 9.999 10 5.425 0 10-4.586 10.001-10 0-5.376-4.636-10-10-10z"/><path d="m381.51 170.612h80.327c5.522 0 10-4.477 10-10v-50.204c0-5.523-4.478-10-10-10h-80.327c-5.522 0-10 4.477-10 10v50.204c0 5.523 4.477 10 10 10zm10-50.204h60.327v30.204h-60.327z"/></g></svg>