<svg id="Layer_1" height="512" viewBox="0 0 64 64" width="512" xmlns="http://www.w3.org/2000/svg" data-name="Layer 1"><path d="m54.16 13.28h-44.32a1 1 0 0 0 -1 1v28.72a1 1 0 0 0 1 1h44.32a1 1 0 0 0 1-1v-28.75a1 1 0 0 0 -1-.97zm-.97 28.72h-42.38v-26.78h42.38z"/><path d="m63 46.13h-3.84v-34.13a2.87 2.87 0 0 0 -2.87-2.86h-48.58a2.87 2.87 0 0 0 -2.87 2.86v34.13h-3.84a1 1 0 0 0 -1 1 7.73 7.73 0 0 0 7.73 7.72h48.54a7.73 7.73 0 0 0 7.73-7.75 1 1 0 0 0 -1-.97zm-56.22-34.13a.93.93 0 0 1 .93-.92h48.58a.93.93 0 0 1 .93.92v34.13h-50.44zm32.51 36a2.42 2.42 0 0 1 -2.2 1.44h-10.18a2.42 2.42 0 0 1 -2.2-1.44zm17 4.81h-48.56a5.79 5.79 0 0 1 -5.73-4.74h20.68a4.35 4.35 0 0 0 4.23 3.38h10.18a4.35 4.35 0 0 0 4.23-3.38h20.68a5.79 5.79 0 0 1 -5.73 4.81z"/></svg>