<?xml version="1.0" encoding="UTF-8" standalone="no"?>
<!-- Created with Inkscape (http://www.inkscape.org/) -->

<svg
   version="1.1"
   id="svg93"
   xml:space="preserve"
   width="682.66669"
   height="682.66669"
   viewBox="0 0 682.66669 682.66669"
   xmlns="http://www.w3.org/2000/svg"
   xmlns:svg="http://www.w3.org/2000/svg"><defs
     id="defs97"><clipPath
       clipPathUnits="userSpaceOnUse"
       id="clipPath111"><path
         d="M 0,512 H 512 V 0 H 0 Z"
         id="path109" /></clipPath></defs><g
     id="g99"
     transform="matrix(1.3333333,0,0,-1.3333333,0,682.66667)"><g
       id="g101"
       transform="translate(409.0649,399.7744)"><path
         d="M 0,0 0.028,-0.028"
         style="fill:none;stroke:#000000;stroke-width:20;stroke-linecap:round;stroke-linejoin:round;stroke-miterlimit:10;stroke-dasharray:none;stroke-opacity:1"
         id="path103" /></g><g
       id="g105"><g
         id="g107"
         clip-path="url(#clipPath111)"><g
           id="g113"
           transform="translate(263.7324,309.0693)"><path
             d="M 0,0 C 23.5,68.305 40.167,158.699 100.035,158.699"
             style="fill:none;stroke:#000000;stroke-width:20;stroke-linecap:round;stroke-linejoin:round;stroke-miterlimit:10;stroke-dasharray:none;stroke-opacity:1"
             id="path115" /></g><g
           id="g117"
           transform="translate(211.0366,38.8774)"><path
             d="m 0,0 c -68.769,4.751 -135.185,20.421 -188.504,47.007 -11.169,5.572 -15.732,19.233 -10.148,30.377 5.584,11.172 19.276,15.697 30.444,10.125 116.958,-58.321 309.402,-58.321 426.331,0 11.169,5.572 24.86,1.047 30.444,-10.125 C 294.151,66.24 289.616,52.579 278.419,47.007 225.071,20.393 158.627,4.724 89.83,0"
             style="fill:none;stroke:#000000;stroke-width:20;stroke-linecap:round;stroke-linejoin:round;stroke-miterlimit:10;stroke-dasharray:none;stroke-opacity:1"
             id="path119" /></g><g
           id="g121"
           transform="translate(432.0825,110.689)"><path
             d="m 0,0 -44.391,88.33 43.314,148.29 41.725,-4.526 c 34.243,-3.733 36.596,32.583 16.612,48.252 l -105.619,79.646 c -4.025,4.045 -9.922,5.487 -14.514,2.093 -17.971,-13.293 -20.806,-42.651 -10.544,-59.084 -5.84,-7.806 -2.183,-3.366 -9.327,-14.312 -24.406,-43.16 -13.549,-74.102 -50.513,-85.557 -25.993,-7.014 -67.521,-6.137 -94.592,-0.226 -12.756,2.8 -34.81,4.299 -46.318,4.384 -86.656,0.537 -97.909,-97.493 -36.284,-136.1 h 0.029 l -36.681,-72.972"
             style="fill:none;stroke:#000000;stroke-width:20;stroke-linecap:round;stroke-linejoin:round;stroke-miterlimit:10;stroke-dasharray:none;stroke-opacity:1"
             id="path123" /></g><g
           id="g125"
           transform="translate(143.3452,93.3799)"><path
             d="m 0,0 36.793,68.587 c 7.824,14.538 17.094,19.968 32.968,19.968 h 91.729 c 15.874,0 25.172,-5.43 32.967,-19.968 L 230.655,1.103"
             style="fill:none;stroke:#000000;stroke-width:20;stroke-linecap:round;stroke-linejoin:round;stroke-miterlimit:10;stroke-dasharray:none;stroke-opacity:1"
             id="path127" /></g><g
           id="g129"
           transform="translate(157.915,317.9785)"><path
             d="m 0,0 c -27.694,36.033 -66.472,50.288 -100.233,11.54 -24.321,-27.916 -25.143,-71.105 -35.291,-137.938 28.629,15.159 55.729,13.462 60.52,53.681"
             style="fill:none;stroke:#000000;stroke-width:20;stroke-linecap:round;stroke-linejoin:round;stroke-miterlimit:10;stroke-dasharray:none;stroke-opacity:1"
             id="path131" /></g><g
           id="g133"
           transform="translate(298.8257,313.8208)"><path
             d="M 0,0 0.028,-32.583 C 0.057,-52.664 -16.441,-69.096 -36.567,-69.096 H -85.72 c -20.097,0 -36.567,16.432 -36.567,36.513 V 3.422"
             style="fill:none;stroke:#000000;stroke-width:20;stroke-linecap:round;stroke-linejoin:round;stroke-miterlimit:10;stroke-dasharray:none;stroke-opacity:1"
             id="path135" /></g><g
           id="g137"
           transform="translate(213.106,181.9351)"><path
             d="m 0,0 v 62.79 m 49.153,0 V 0"
             style="fill:none;stroke:#000000;stroke-width:20;stroke-linecap:round;stroke-linejoin:round;stroke-miterlimit:10;stroke-dasharray:none;stroke-opacity:1"
             id="path139" /></g><g
           id="g141"
           transform="translate(255.9941,37.3501)"><path
             d="M 0,0 H -0.057"
             style="fill:none;stroke:#000000;stroke-width:20;stroke-linecap:round;stroke-linejoin:round;stroke-miterlimit:10;stroke-dasharray:none;stroke-opacity:1"
             id="path143" /></g></g></g></g></svg>
