<svg height="512" viewBox="0 0 60 60" width="512" xmlns="http://www.w3.org/2000/svg"><g id="Page-1" fill="none" fill-rule="evenodd"><g id="002---Sell-Button"><g id="Icons" transform="translate(1 1)"><path id="Path" d="m30.95 26h24.05c1.6568542 0 3-1.3431458 3-3v-20c0-1.65685425-1.3431458-3-3-3h-52c-1.65685425 0-3 1.34314575-3 3v20c0 1.6568542 1.34314575 3 3 3z" fill="#ef314c"/><path id="Path" d="m55 0h-3c1.6568542 0 3 1.34314575 3 3v20c0 1.6568542-1.3431458 3-3 3h3c1.6568542 0 3-1.3431458 3-3v-20c0-1.65685425-1.3431458-3-3-3z" fill="#bb193b"/><path id="Path" d="m46 40.5v12.5c0 2.7614237-2.2385763 5-5 5h-11c-1.1748934.0029697-2.29113-.513061-3.05-1.41v-.01c-.1791211-.2044873-.3335193-.4293715-.46-.67-.7299538-1.4149876-1.6631884-2.7154518-2.77-3.86-2.0200089-1.9279046-4.1610292-3.724892-6.41-5.38-.8010373-.5938412-1.2723989-1.5328529-1.27-2.53-.0029326-1.1122322.5785268-2.1442688 1.5313562-2.7180156.9528294-.5737467 2.1369854-.6048764 3.1186438-.0819844l5.31 2.66v-17.5c0-1.3807119 1.1192881-2.5 2.5-2.5s2.5 1.1192881 2.5 2.5v8c0-1.3807119 1.1192881-2.5 2.5-2.5s2.5 1.1192881 2.5 2.5v3c0-1.3807119 1.1192881-2.5 2.5-2.5s2.5 1.1192881 2.5 2.5v3c0-1.3807119 1.1192881-2.5 2.5-2.5s2.5 1.1192881 2.5 2.5z" fill="#ffe0b2"/><path id="Path" d="m45.27 38.73c-.8805218-.8831552-2.2791146-.9772501-3.27-.22.0946134.0666541.1841891.1401864.268.22.469303.4694262.7326545 1.1062185.732 1.77v12.5c0 2.7614237-2.2385763 5-5 5h3c2.7614237 0 5-2.2385763 5-5v-12.5c.001185-.6634943-.2614303-1.3002463-.73-1.77z" fill="#dfc49c"/></g><g id="Icons_copy" fill="#000"><path id="Shape" d="m56 0h-52c-2.209139 0-4 1.790861-4 4v20c0 2.209139 1.790861 4 4 4h22v15.382l-3.863-1.932c-1.2910652-.6806314-2.8443883-.6348971-4.0931722.1205148-1.2487839.755412-2.0103575 2.1100004-2.0068278 3.5694852-.0050419 1.3130354.6154809 2.5499962 1.671 3.331 2.2122359 1.6287136 4.3188084 3.3962706 6.307 5.292 1.0343134 1.0823596 1.9084987 2.3070945 2.596 3.637.1453204.264902.315057.5156569.507.749.0215496.032623.04492.0640061.07.094.9514175 1.116487 2.3451206 1.7588627 3.812 1.757h11c3.3123376-.0033074 5.9966926-2.6876624 6-6v-12.5c0-1.9329966-1.5670034-3.5-3.5-3.5-.5253987.0029919-1.043195.1257718-1.514.359-.0754791-1.87231-1.6121787-3.3530255-3.486-3.359-.5253987.0029919-1.043195.1257718-1.514.359-.0365512-1.1759649-.6669915-2.2531469-1.6743952-2.8609027-1.0074038-.6077558-2.2542833-.6631406-3.3116048-.1470973v-4.351h23c2.209139 0 4-1.790861 4-4v-20c0-2.209139-1.790861-4-4-4zm-21.5 34c.8284271 0 1.5.6715729 1.5 1.5v8.5c0 .5522847.4477153 1 1 1s1-.4477153 1-1v-5.5c0-.8284271.6715729-1.5 1.5-1.5s1.5.6715729 1.5 1.5v5.5c0 .5522847.4477153 1 1 1s1-.4477153 1-1v-2.5c0-.8284271.6715729-1.5 1.5-1.5s1.5.6715729 1.5 1.5v12.5c0 2.209139-1.790861 4-4 4h-11c-.8491674.0005149-1.6587748-.3588665-2.228-.989-.02-.029-.042-.057-.065-.085-.1315671-.152007-.2465505-.3176098-.343-.494-.7789176-1.4986004-1.7697717-2.8771067-2.942-4.093-2.0526165-1.9598153-4.2280236-3.7868501-6.513-5.47-.5488346-.4047609-.8716552-1.0470589-.869-1.729.0030254-.4481389.1406423-.8850288.395-1.254.6436006-.8858651 1.8416425-1.1619097 2.808-.647l5.31 2.656c.3100616.1549383.6782442.1382634.9730309-.0440684.2947868-.1823318.4741307-.5043136.4739691-.8509316v-17.5c0-.8284271.6715729-1.5 1.5-1.5s1.5.6715729 1.5 1.5v16.5c0 .5522847.4477153 1 1 1s1-.4477153 1-1v-8.5c0-.8284271.6715729-1.5 1.5-1.5zm23.5-10c0 1.1045695-.8954305 2-2 2h-23.351c-.5674843-1.2281755-1.7970575-2.0145276-3.15-2.0145276s-2.5825157.7863521-3.15 2.0145276h-22.349c-1.1045695 0-2-.8954305-2-2v-20c0-1.1045695.8954305-2 2-2h52c1.1045695 0 2 .8954305 2 2z" fill-rule="nonzero"/><path id="Path" d="m11 7c2.206 0 4 1.346 4 3 0 .5522847.4477153 1 1 1s1-.4477153 1-1c0-2.757-2.691-5-6-5s-6 2.243-6 5 2.691 5 6 5c2.206 0 4 1.346 4 3s-1.794 3-4 3-4-1.346-4-3c0-.5522847-.44771525-1-1-1s-1 .4477153-1 1c0 2.757 2.691 5 6 5s6-2.243 6-5-2.691-5-6-5c-2.206 0-4-1.346-4-3s1.794-3 4-3z"/><path id="Path" d="m29 7c.5522847 0 1-.44771525 1-1s-.4477153-1-1-1h-8c-.5522847 0-1 .44771525-1 1v16c0 .5522847.4477153 1 1 1h8c.5522847 0 1-.4477153 1-1s-.4477153-1-1-1h-7v-6h6c.5522847 0 1-.4477153 1-1s-.4477153-1-1-1h-6v-6z"/><path id="Path" d="m42 21h-7v-15c0-.55228475-.4477153-1-1-1s-1 .44771525-1 1v16c0 .5522847.4477153 1 1 1h8c.5522847 0 1-.4477153 1-1s-.4477153-1-1-1z"/><path id="Path" d="m55 21h-7v-15c0-.55228475-.4477153-1-1-1s-1 .44771525-1 1v16c0 .5522847.4477153 1 1 1h8c.5522847 0 1-.4477153 1-1s-.4477153-1-1-1z"/></g></g></g></svg>