<?xml version="1.0" encoding="iso-8859-1"?>
<!-- Generator: Adobe Illustrator 19.0.0, SVG Export Plug-In . SVG Version: 6.00 Build 0)  -->
<svg version="1.1" id="Layer_1" xmlns="http://www.w3.org/2000/svg" xmlns:xlink="http://www.w3.org/1999/xlink" x="0px" y="0px"
	 viewBox="0 0 512 512" style="enable-background:new 0 0 512 512;" xml:space="preserve">
<g>
	<g>
		<path d="M475.045,277.048h-20.448c-35.276,0-69.991-9.46-100.39-27.359l-54.997-32.381c-27.18-16.003-49.406-39.166-64.277-66.982
			l-13.284-24.851c-6.045-11.308-19.987-16.153-31.744-11.028l-16.8,7.324c-9.034,3.938-14.872,12.851-14.872,22.706v13.004
			c0,5.143-3.041,9.803-7.748,11.875c-20.93,9.209-44.897,4.712-61.064-11.456c-4.001-4.001-9.321-6.204-14.979-6.204
			c-11.681,0-21.184,9.503-21.184,21.183v11.057c0,9.319-3.629,18.081-10.219,24.67c-9.423,9.423-14.612,21.951-14.612,35.276
			v56.094L1.2,342.128c-0.036,0.056-0.064,0.115-0.099,0.171c-0.086,0.141-0.17,0.281-0.247,0.428
			c-0.045,0.086-0.084,0.174-0.126,0.261c-0.063,0.133-0.125,0.266-0.181,0.403c-0.043,0.105-0.079,0.212-0.116,0.318
			c-0.043,0.122-0.086,0.243-0.123,0.368c-0.037,0.124-0.066,0.249-0.096,0.375c-0.026,0.11-0.054,0.22-0.075,0.332
			c-0.028,0.144-0.047,0.288-0.066,0.432c-0.013,0.098-0.028,0.195-0.037,0.294c-0.015,0.161-0.02,0.323-0.024,0.484
			C0.009,346.061,0,346.128,0,346.197c0,0.029,0.002,0.058,0.002,0.088c0,0.045,0.002,0.09,0.003,0.135
			c0.121,29.34,24.022,53.172,53.389,53.172h373.017c47.194,0,85.589-38.395,85.589-85.589
			C512,293.626,495.422,277.048,475.045,277.048z M173.232,157.48v-13.004c0-3.887,2.303-7.402,5.866-8.956l16.8-7.324
			c4.636-2.021,10.137-0.11,12.521,4.35l13.284,24.851c2.726,5.099,5.698,10.041,8.866,14.839l-22.454,8.878
			c-10.807-8.011-23.551-12.653-36.766-13.559C172.571,164.396,173.232,160.991,173.232,157.48z M68.258,183.935v-11.057
			c0-3.409,2.773-6.183,6.184-6.183c1.651,0,3.204,0.644,4.372,1.811c20.346,20.347,50.398,26.157,76.819,14.952l1.136-0.204
			c12.615-2.266,25.401-0.061,36.376,6.042l-33.106,20.332c-25.681,15.771-56.963,19.852-85.828,11.196l-17.314-5.192
			C64.253,206.723,68.258,195.637,68.258,183.935z M43.427,279.718h9.454c9.759,0,18.081,6.257,21.176,14.968h-30.63V279.718z
			 M379.108,348.396h48.482c24.088,0,47.35-6.618,67.738-19.165c-6.983,31.624-35.222,55.361-68.917,55.361H53.395
			c-20.46,0-37.231-16.088-38.333-36.278l24.95-38.627h60.701c11.546,0,22.399,4.496,30.563,12.66l3.945,3.945
			c14.254,14.252,33.204,22.102,53.359,22.102h157.648c4.143,0,7.5-3.358,7.5-7.5c0-4.142-3.357-7.5-7.5-7.5H188.579
			c-9.051,0-17.798-1.978-25.749-5.724l18.012-47.763c1.462-3.876-0.495-8.203-4.371-9.664c-3.876-1.461-8.202,0.495-9.664,4.371
			l-16.893,44.795c-1.407-1.175-2.775-2.411-4.088-3.724l-3.944-3.944c-10.997-10.997-25.618-17.053-41.17-17.053H89.594
			c-3.484-17.078-18.62-29.968-36.713-29.968h-9.454v-20.836c0-5.483,1.265-10.768,3.642-15.536l22.833,6.847
			c32.953,9.881,68.668,5.223,97.986-12.782l24.213-14.87l-14.834,39.333c-1.462,3.875,0.495,8.203,4.371,9.664
			c0.872,0.329,1.766,0.484,2.646,0.484c3.031,0,5.886-1.852,7.019-4.855l21.396-56.734l26.916-10.641
			c1.627,2.068,3.306,4.092,5.017,6.087l-25.447,31.032c-2.626,3.203-2.159,7.929,1.044,10.555c1.396,1.144,3.078,1.701,4.752,1.701
			c2.169,0,4.32-0.936,5.804-2.744l24.156-29.458c4.608,4.566,9.452,8.894,14.521,12.963l-11.865,35.749
			c-1.305,3.931,0.824,8.176,4.756,9.48c0.784,0.26,1.58,0.384,2.363,0.384c3.144,0,6.072-1.992,7.117-5.139l10.333-31.133
			c3.083,2.073,6.22,4.074,9.433,5.966l5.866,3.454l-2.22,35.32c-0.26,4.134,2.881,7.696,7.015,7.956
			c0.16,0.01,0.319,0.015,0.478,0.015c3.928,0,7.229-3.056,7.479-7.03l1.743-27.727l17.585,10.354l1.664,26.955
			c0.245,3.977,3.547,7.038,7.479,7.038c0.155,0,0.312-0.005,0.469-0.015c4.135-0.255,7.279-3.814,7.023-7.948l-1.04-16.849
			l1.457,0.858c7.681,4.523,15.622,8.538,23.763,12.044l0.223,10.392c0.088,4.086,3.428,7.339,7.495,7.339
			c0.055,0,0.109,0,0.164-0.002c4.142-0.089,7.426-3.518,7.337-7.659l-0.091-4.221c22.156,7.603,45.515,11.54,69.109,11.54h20.448
			c10.844,0,19.876,7.9,21.642,18.248l-3.849,2.672c-19.251,13.362-41.813,20.425-65.248,20.425h-48.482c-4.143,0-7.5,3.358-7.5,7.5
			C371.608,345.038,374.965,348.396,379.108,348.396z"/>
	</g>
</g>
<g>
	<g>
		<circle cx="106.25" cy="338.849" r="7.706"/>
	</g>
</g>
<g>
	<g>
		<circle cx="77.63" cy="338.849" r="7.706"/>
	</g>
</g>
<g>
	<g>
		<circle cx="47.829" cy="338.849" r="7.706"/>
	</g>
</g>
<g>
</g>
<g>
</g>
<g>
</g>
<g>
</g>
<g>
</g>
<g>
</g>
<g>
</g>
<g>
</g>
<g>
</g>
<g>
</g>
<g>
</g>
<g>
</g>
<g>
</g>
<g>
</g>
<g>
</g>
</svg>
