<svg id="Filled_Expand" height="512" viewBox="0 0 64 64" width="512" xmlns="http://www.w3.org/2000/svg" data-name="Filled Expand"><path d="m6 13h47a3 3 0 0 1 3 3v7a0 0 0 0 1 0 0h-50a5 5 0 0 1 -5-5 5 5 0 0 1 5-5z" fill="#aa644a"/><path d="m4.68 12.462h44v28h-44z" fill="#5adc5a" transform="matrix(-.342 -.94 .94 -.342 10.94 60.583)"/><path d="m23.44 46.8 18.793-6.84-10.944-30.074a4 4 0 0 1 -5.127-2.386l-11.276 4.1a4 4 0 0 1 -2.386 5.126z" fill="#85fa8b"/><path d="m16.32 12.462h44v28h-44z" fill="#6beb71" transform="matrix(-.342 -.94 .94 -.342 26.56 71.521)"/><path d="m35.079 46.8 18.794-6.84-10.944-30.074a4 4 0 0 1 -5.129-2.386l-11.275 4.1a4 4 0 0 1 -2.39 5.127z" fill="#85fa8b"/><rect fill="#6beb71" height="3" rx="1.5" transform="matrix(.342 .94 -.94 .342 38.445 -21.715)" width="7" x="31.229" y="15.095"/><path d="m6 23h50a3 3 0 0 1 3 3v34a3 3 0 0 1 -3 3h-51a4 4 0 0 1 -4-4v-41a5 5 0 0 0 5 5z" fill="#ba745a"/><path d="m52 37h9a2 2 0 0 1 2 2v8a2 2 0 0 1 -2 2h-9a6 6 0 0 1 -6-6 6 6 0 0 1 6-6z" fill="#91888e"/><path d="m48 45a5.968 5.968 0 0 0 .881 3.119 5.968 5.968 0 0 0 3.119.881h9a2 2 0 0 0 2-2v-8h-9a6 6 0 0 0 -6 6z" fill="#81787e"/><circle cx="52" cy="43" fill="#f2fbff" r="2"/><path d="m5 51h14v4h-14z" fill="#f2fbff"/><path d="m5 58.25h-1a.75.75 0 0 0 0 1.5h1a.75.75 0 0 0 0-1.5z"/><path d="m50.23 58.25h-1.884a.75.75 0 0 0 0 1.5h1.884a.75.75 0 0 0 0-1.5z"/><path d="m21.961 58.25h-1.884a.75.75 0 1 0 0 1.5h1.884a.75.75 0 0 0 0-1.5z"/><path d="m16.308 58.25h-1.885a.75.75 0 0 0 0 1.5h1.885a.75.75 0 0 0 0-1.5z"/><path d="m10.654 58.25h-1.885a.75.75 0 0 0 0 1.5h1.885a.75.75 0 0 0 0-1.5z"/><path d="m33.27 58.25h-1.885a.75.75 0 0 0 0 1.5h1.885a.75.75 0 1 0 0-1.5z"/><path d="m27.615 58.25h-1.885a.75.75 0 0 0 0 1.5h1.885a.75.75 0 0 0 0-1.5z"/><path d="m38.923 58.25h-1.885a.75.75 0 0 0 0 1.5h1.885a.75.75 0 0 0 0-1.5z"/><path d="m44.577 58.25h-1.885a.75.75 0 0 0 0 1.5h1.885a.75.75 0 0 0 0-1.5z"/><path d="m54 59.75h1a.75.75 0 0 0 .75-.75v-1a.75.75 0 0 0 -1.5 0v.25h-.25a.75.75 0 0 0 0 1.5z"/><path d="m55 54.464a.75.75 0 0 0 .75-.75v-2.143a.75.75 0 0 0 -1.5 0v2.143a.75.75 0 0 0 .75.75z"/><path d="m55 31.536a.75.75 0 0 0 -.75.75v2.143a.75.75 0 0 0 1.5 0v-2.143a.75.75 0 0 0 -.75-.75z"/><path d="m54 27.75h.25v.25a.75.75 0 0 0 1.5 0v-1a.75.75 0 0 0 -.75-.75h-1a.75.75 0 0 0 0 1.5z"/><path d="m47.719 27.75h2.093a.75.75 0 0 0 0-1.5h-2.093a.75.75 0 1 0 0 1.5z"/><path d="m44.281 27a.75.75 0 0 0 -.75-.75h-2.094a.75.75 0 0 0 0 1.5h2.094a.75.75 0 0 0 .75-.75z"/><path d="m16.313 27.75h2.094a.75.75 0 0 0 0-1.5h-2.094a.75.75 0 1 0 0 1.5z"/><path d="m31.719 27a.75.75 0 0 0 -.75-.75h-2.093a.75.75 0 0 0 0 1.5h2.093a.75.75 0 0 0 .75-.75z"/><path d="m38 27a.75.75 0 0 0 -.75-.75h-2.094a.75.75 0 0 0 0 1.5h2.094a.75.75 0 0 0 .75-.75z"/><path d="m25.438 27a.75.75 0 0 0 -.75-.75h-2.088a.75.75 0 0 0 0 1.5h2.093a.75.75 0 0 0 .745-.75z"/><path d="m10.032 27.75h2.094a.75.75 0 0 0 0-1.5h-2.094a.75.75 0 1 0 0 1.5z"/><path d="m4.845 27.75h1a.75.75 0 0 0 0-1.5h-1a.75.75 0 1 0 0 1.5z"/><path d="m61 36.25h-1.25v-10.25a3.756 3.756 0 0 0 -3-3.674v-6.326a3.755 3.755 0 0 0 -3.75-3.75h-4.156l-4.188-11.506a.75.75 0 0 0 -.956-.444l-9.579 3.48-1.105-3.036a.75.75 0 0 0 -.961-.444l-26.311 9.572a.751.751 0 0 0 -.449.961l.52 1.426a5.754 5.754 0 0 0 -5.565 5.741v41a4.756 4.756 0 0 0 4.75 4.75h51a3.755 3.755 0 0 0 3.75-3.75v-10.25h1.25a2.752 2.752 0 0 0 2.75-2.75v-8a2.752 2.752 0 0 0 -2.75-2.75zm-8-22.5a2.253 2.253 0 0 1 2.25 2.25v6.25h-2.767l-3.093-8.5zm-9.5-11.789 7.387 20.289h-2.66l-4.594-12.621a.749.749 0 0 0 -.961-.448 3.254 3.254 0 0 1 -4.166-1.943.75.75 0 0 0 -.961-.448l-11.276 4.1a.752.752 0 0 0 -.449.962 3.253 3.253 0 0 1 -1.942 4.165.751.751 0 0 0 -.448.962l1.917 5.267h-2.66l-4.087-11.221zm-16.069 10.107 9.978-3.632a4.76 4.76 0 0 0 5.051 2.355l4.17 11.459h-19.687l-1.867-5.131a4.763 4.763 0 0 0 2.355-5.051zm-11.64 0 1.407-.512 3.892 10.694h-5.79l-1.868-5.131a4.76 4.76 0 0 0 2.359-5.051zm16.072-10.107.849 2.332-18.083 6.6a.751.751 0 0 0 -.448.962 3.253 3.253 0 0 1 -1.942 4.165.751.751 0 0 0 -.449.962l1.918 5.267h-2.661l-4.086-11.224zm-25.863 11.789h.357l3.094 8.5h-3.451a4.25 4.25 0 0 1 0-8.5zm52.25 46.25a2.253 2.253 0 0 1 -2.25 2.25h-51a3.254 3.254 0 0 1 -3.25-3.25v-37.131a5.736 5.736 0 0 0 4.25 1.881h50a2.253 2.253 0 0 1 2.25 2.25v10.25h-6.25a6.75 6.75 0 0 0 0 13.5h6.25zm4-13a1.252 1.252 0 0 1 -1.25 1.25h-9a5.25 5.25 0 0 1 0-10.5h9a1.252 1.252 0 0 1 1.25 1.25z"/><path d="m52 40.25a2.75 2.75 0 1 0 2.75 2.75 2.752 2.752 0 0 0 -2.75-2.75zm0 4a1.25 1.25 0 1 1 1.25-1.25 1.252 1.252 0 0 1 -1.25 1.25z"/><path d="m19.75 55v-4a.75.75 0 0 0 -.75-.75h-14a.75.75 0 0 0 -.75.75v4a.75.75 0 0 0 .75.75h14a.75.75 0 0 0 .75-.75zm-1.5-.75h-12.5v-2.5h12.5z"/><path d="m11.469 13.907a1 1 0 1 0 -1.282-.6 1 1 0 0 0 1.282.6z"/><path d="m33.3 19.244a2.25 2.25 0 1 0 4.227-1.544l-1.368-3.759a2.25 2.25 0 0 0 -4.229 1.539zm.49-5.233a.75.75 0 0 1 .961.448l1.368 3.759a.75.75 0 1 1 -1.409.513l-1.37-3.759a.75.75 0 0 1 .448-.961z"/><path d="m21.827 13.309a1 1 0 1 0 .6-1.281 1 1 0 0 0 -.6 1.281z"/><path d="m41.9 7.067a1 1 0 1 0 -1.282-.6 1 1 0 0 0 1.282.6z"/></svg>