<svg xmlns="http://www.w3.org/2000/svg" version="1.1" xmlns:xlink="http://www.w3.org/1999/xlink" xmlns:svgjs="http://svgjs.com/svgjs" width="512" height="512" x="0" y="0" viewBox="0 0 24 24" style="enable-background:new 0 0 512 512" xml:space="preserve" class=""><g><path clip-rule="evenodd" d="m17.2929 4.29289c-.3905.39053-.3905 1.02369 0 1.41422l1.2929 1.29289h-5.5858c-2.2091 0-4 1.79086-4 4v1c0 .5523.44772 1 1 1 .5523 0 1-.4477 1-1v-1c0-1.10457.8954-2 2-2h5.5858l-1.2929 1.2929c-.3905.3905-.3905 1.0237 0 1.4142s1.0237.3905 1.4142 0l3-2.99999c.3905-.39053.3905-1.02369 0-1.41422l-3-3c-.3905-.39052-1.0237-.39052-1.4142 0zm-3.2929 6.70711c-.5523 0-1 .4477-1 1v1c0 1.1046-.8954 2-2 2h-5.58579l1.2929-1.2929c.39052-.3905.39052-1.0237 0-1.4142-.39053-.3905-1.02369-.3905-1.41422 0l-3 3c-.39052.3905-.39052 1.0237 0 1.4142l3 3c.39053.3905 1.02369.3905 1.41422 0 .39052-.3905.39052-1.0237 0-1.4142l-1.2929-1.2929h5.58579c2.2091 0 4-1.7909 4-4v-1c0-.5523-.4477-1-1-1z" fill="#f19024" fill-rule="evenodd" data-original="#000000" class=""></path></g></svg>